<?xml version="1.0" encoding="utf-8"?>
<!-- Generator: Adobe Illustrator 18.1.1, SVG Export Plug-In . SVG Version: 6.00 Build 0)  -->
<!DOCTYPE svg PUBLIC "-//W3C//DTD SVG 1.1//EN" "http://www.w3.org/Graphics/SVG/1.1/DTD/svg11.dtd">
<svg version="1.1" xmlns="http://www.w3.org/2000/svg" xmlns:xlink="http://www.w3.org/1999/xlink" x="0px" y="0px"
	 viewBox="0 0 350 350" enable-background="new 0 0 350 350" xml:space="preserve">
<g id="Layer_1" display="none">
	<path display="inline" d="M174.5,94.6C138.4,18.7,46.1,33.8,17.8,94.8c-5.5,8.3-8.4,20.8-8.4,39.1c0,91.2,65.3,145.9,165.1,199.2
		c71.5-40.4,165.1-108,165.1-199.2C339.6,42.7,216.6,5,174.5,94.6z"/>
</g>
<g id="Layer_2">
	<path d="M331.6,302l-84.2-81.3c16.4-20.7,26.2-46.6,26.2-74.7c0-67.9-57-123-127.3-123S19,78,19,146s57,123,127.3,123
		c31.2,0,59.7-10.8,81.9-28.8l83.7,80.9c5.5,5.3,9.9,0.9,15.4-4.4C332.7,311.4,337.1,307.3,331.6,302z M211.2,223.9
		c-17.8,13.9-40.3,22.2-65,22.2c-57.2,0-103.5-44.8-103.5-100S89.1,46,146.3,46s103.5,44.8,103.5,100c0,21.7-7.2,41.8-19.4,58.2
		C225,211.6,218.5,218.2,211.2,223.9z"/>
</g>
<g id="Layer_3" display="none">
	<g display="inline">
		<path d="M162.5,190.4L39.6,67.4c-9.4,0.6-16.8,8.4-16.8,17.9V264c0,9.9,8,18,18,18h268.4c9.9,0,18-8,18-18V85.3
			c0-9.2-6.9-16.7-15.8-17.8L188.6,190.4C181.4,197.6,169.7,197.6,162.5,190.4z"/>
		<path d="M162.5,176.9c7.2,7.2,18.8,7.2,26,0L297.9,67.5H53.1L162.5,176.9z"/>
	</g>
</g>
<g id="Layer_4" display="none">
	<polygon display="inline" points="332.1,93 296,56.9 132.1,220.8 58.9,147.6 22.8,183.7 132.1,293 132.1,293 132.1,293 	"/>
</g>
</svg>
