<?xml version="1.0" encoding="utf-8"?>
<!-- Generator: Adobe Illustrator 19.1.0, SVG Export Plug-In . SVG Version: 6.00 Build 0)  -->
<!DOCTYPE svg PUBLIC "-//W3C//DTD SVG 1.1//EN" "http://www.w3.org/Graphics/SVG/1.1/DTD/svg11.dtd">
<svg version="1.1" xmlns="http://www.w3.org/2000/svg" xmlns:xlink="http://www.w3.org/1999/xlink" x="0px" y="0px"
	 viewBox="0 0 1049 595" enable-background="new 0 0 1049 595" xml:space="preserve">
<g id="home-sky">
	
		<linearGradient id="stars-gradient_1_" gradientUnits="userSpaceOnUse" x1="524.5" y1="595" x2="524.5" y2="-1.177450e-07" gradientTransform="matrix(-1 0 0 -1 1049 595)">
		<stop  offset="0" style="stop-color:#181F2B"/>
		<stop  offset="0.113" style="stop-color:#1E2531"/>
		<stop  offset="0.2974" style="stop-color:#2C3442"/>
		<stop  offset="0.5303" style="stop-color:#444F61"/>
		<stop  offset="0.7997" style="stop-color:#667994"/>
		<stop  offset="1" style="stop-color:#85A5CC"/>
	</linearGradient>
	
		<rect id="stars-gradient" x="0" fill-rule="evenodd" clip-rule="evenodd" fill="url(#stars-gradient_1_)" width="1049" height="595"/>
</g>
<g id="home-stars">
	<g opacity="0.4">
		<ellipse fill="#F9F6C1" cx="980.2" cy="743.3" rx="1.3" ry="1.4"/>
		
			<ellipse transform="matrix(1 4.061133e-03 -4.061133e-03 1 3.2125 -3.4405)" fill="#F9F6C1" cx="848.8" cy="789.3" rx="1.3" ry="1.4"/>
		<ellipse fill="#F9F6C1" cx="1043.5" cy="587.8" rx="1.3" ry="1.4"/>
		<ellipse fill="#F9F6C1" cx="994.8" cy="519.8" rx="1.3" ry="1.4"/>
		
			<ellipse transform="matrix(1 4.061133e-03 -4.061133e-03 1 1.8547 -3.7042)" fill="#F9F6C1" cx="913" cy="454.8" rx="1.3" ry="1.4"/>
		<ellipse fill="#F9F6C1" cx="929.4" cy="719.8" rx="1.3" ry="1.4"/>
		<ellipse fill="#F9F6C1" cx="655" cy="435" rx="1.3" ry="1.4"/>
		
			<ellipse transform="matrix(1 4.063500e-03 -4.063500e-03 1 1.8774 -2.4974)" fill="#F9F6C1" cx="615.5" cy="460.8" rx="1.3" ry="1.4"/>
		
			<ellipse transform="matrix(1 4.059619e-03 -4.059619e-03 1 3.0858 -4.0197)" fill="#F9F6C1" cx="991.7" cy="758.1" rx="1.3" ry="1.4"/>
		
			<ellipse transform="matrix(1 4.059619e-03 -4.059619e-03 1 3.219 -3.9194)" fill="#F9F6C1" cx="967.1" cy="791" rx="1.3" ry="1.4"/>
		
			<ellipse transform="matrix(1 4.063510e-03 -4.063510e-03 1 2.4931 -3.2438)" fill="#F9F6C1" cx="799.5" cy="611.9" rx="1.3" ry="1.4"/>
		<ellipse fill="#F9F6C1" cx="968.7" cy="677.6" rx="1.3" ry="1.4"/>
		
			<ellipse transform="matrix(1 4.065277e-03 -4.065277e-03 1 1.7703 -1.9511)" fill="#F9F6C1" cx="480.8" cy="434.5" rx="1.3" ry="1.4"/>
		
			<ellipse transform="matrix(0.9399 0.3415 -0.3415 0.9399 203.9784 -298.0305)" fill="#F9F6C1" cx="948.6" cy="430.4" rx="1.3" ry="1.4"/>
		
			<ellipse transform="matrix(0.94 0.3412 -0.3412 0.94 200.355 -295.6304)" fill="#F9F6C1" cx="940.5" cy="421.7" rx="1.3" ry="1.4"/>
		
			<ellipse transform="matrix(0.94 0.3413 -0.3413 0.94 185.8772 -251.8778)" fill="#F9F6C1" cx="808.8" cy="402.4" rx="1.3" ry="1.4"/>
		
			<ellipse transform="matrix(0.2466 -0.9691 0.9691 0.2466 271.2746 1301.037)" fill="#F9F6C1" cx="972.4" cy="476.1" rx="1.3" ry="1.4"/>
		
			<ellipse transform="matrix(0.2467 -0.9691 0.9691 0.2467 202.553 1409.9319)" fill="#F9F6C1" cx="1008.2" cy="574.7" rx="1.3" ry="1.4"/>
		
			<ellipse transform="matrix(0.2465 -0.9691 0.9691 0.2465 285.5934 1337.0498)" fill="#F9F6C1" cx="1002.7" cy="484.9" rx="1.3" ry="1.4"/>
		
			<ellipse transform="matrix(0.246 -0.9693 0.9693 0.246 344.833 1347.7297)" fill="#F9F6C1" cx="1038.6" cy="452.2" rx="1.3" ry="1.4"/>
		
			<ellipse transform="matrix(0.2463 -0.9692 0.9692 0.2463 330.0216 1346.5448)" fill="#F9F6C1" cx="1030.8" cy="461.1" rx="1.3" ry="1.4"/>
		
			<ellipse transform="matrix(0.2465 -0.9691 0.9691 0.2465 196.3268 1440.5945)" fill="#F9F6C1" cx="1024.6" cy="594" rx="1.3" ry="1.4"/>
		
			<ellipse transform="matrix(0.2469 -0.969 0.969 0.2469 177.4828 1418.7866)" fill="#F9F6C1" cx="1001.6" cy="595.2" rx="1.3" ry="1.4"/>
		
			<ellipse transform="matrix(-0.9901 -0.1401 0.1401 -0.9901 1852.5533 1370.9861)" fill="#F9F6C1" cx="974.5" cy="620.3" rx="1.3" ry="1.4"/>
		<ellipse fill="#F9F6C1" cx="22.2" cy="402.8" rx="1.3" ry="1.4"/>
		<ellipse fill="#F9F6C1" cx="357.6" cy="409.8" rx="1.3" ry="1.4"/>
		<ellipse fill="#F9F6C1" cx="7.5" cy="423.4" rx="1.3" ry="1.4"/>
		<ellipse fill="#F9F6C1" cx="914.5" cy="661.2" rx="1.3" ry="1.4"/>
		
			<ellipse transform="matrix(1 4.061166e-03 -4.061166e-03 1 2.9656 -3.3677)" fill="#F9F6C1" cx="830.7" cy="728.5" rx="1.3" ry="1.4"/>
		
			<ellipse transform="matrix(0.2889 -0.9574 0.9574 0.2889 45.9108 1235.494)" fill="#F9F6C1" cx="854.6" cy="586.8" rx="1.3" ry="1.4"/>
		
			<ellipse transform="matrix(0.2889 -0.9574 0.9574 0.2889 91.1972 1355.6012)" fill="#F9F6C1" cx="958.1" cy="616.4" rx="1.3" ry="1.4"/>
		
			<ellipse transform="matrix(0.2891 -0.9573 0.9573 0.2891 -24.4356 838.5133)" fill="#F9F6C1" cx="552.4" cy="435.7" rx="1.3" ry="1.4"/>
		
			<ellipse transform="matrix(0.2889 -0.9574 0.9574 0.2889 -22.4458 1527.8677)" fill="#F9F6C1" cx="1017.3" cy="779" rx="1.3" ry="1.4"/>
		
			<ellipse transform="matrix(1 4.059619e-03 -4.059619e-03 1 2.1908 -3.348)" fill="#F9F6C1" cx="825.8" cy="538" rx="1.3" ry="1.4"/>
		<ellipse fill="#F9F6C1" cx="788.4" cy="551.4" rx="1.3" ry="1.4"/>
		
			<ellipse transform="matrix(0.4316 0.9021 -0.9021 0.4316 1193.9849 -340.9415)" fill="#F9F6C1" cx="867.5" cy="777" rx="1.3" ry="1.4"/>
		
			<ellipse transform="matrix(0.4319 0.9019 -0.9019 0.4319 1198.0944 -365.1864)" fill="#F9F6C1" cx="888.9" cy="768.5" rx="1.3" ry="1.4"/>
		
			<ellipse transform="matrix(0.4319 0.9019 -0.9019 0.4319 1161.8787 -388.719)" fill="#F9F6C1" cx="889.5" cy="728" rx="1.3" ry="1.4"/>
		
			<ellipse transform="matrix(0.4319 0.9019 -0.9019 0.4319 1156.9028 -355.4703)" fill="#F9F6C1" cx="860.6" cy="740.7" rx="1.3" ry="1.4"/>
		
			<ellipse transform="matrix(0.4319 0.9019 -0.9019 0.4319 1028.8048 -443.5638)" fill="#F9F6C1" cx="866.5" cy="594.9" rx="1.3" ry="1.4"/>
		
			<ellipse transform="matrix(0.4319 0.9019 -0.9019 0.4319 1023.8278 -410.3169)" fill="#F9F6C1" cx="837.6" cy="607.6" rx="1.3" ry="1.4"/>
		
			<ellipse transform="matrix(0.4316 0.9021 -0.9021 0.4316 510.2773 -1.6415)" fill="#F9F6C1" cx="256.4" cy="404.1" rx="1.3" ry="1.4"/>
		
			<ellipse transform="matrix(-0.9391 0.3438 -0.3438 -0.9391 1845.7756 1084.775)" fill="#F9F6C1" cx="826.7" cy="706" rx="1.3" ry="1.4"/>
		
			<ellipse transform="matrix(-0.9391 0.3438 -0.3438 -0.9391 1865.8817 1125.432)" fill="#F9F6C1" cx="833.2" cy="728.1" rx="1.3" ry="1.4"/>
		
			<ellipse transform="matrix(-0.9388 0.3445 -0.3445 -0.9388 1945.7152 1119.4146)" fill="#F9F6C1" cx="873.4" cy="732.5" rx="1.3" ry="1.4"/>
		<path fill="#F9F6C1" d="M862.4,703c-0.3-0.7,0.1-1.5,0.7-1.7c0.7-0.2,1.4,0.1,1.7,0.8c0.3,0.7-0.1,1.5-0.7,1.7
			C863.4,704.1,862.6,703.7,862.4,703z"/>
		
			<ellipse transform="matrix(-0.9389 0.3441 -0.3441 -0.9389 882.7687 648.0563)" fill="#F9F6C1" cx="383.9" cy="402.4" rx="1.3" ry="1.4"/>
		
			<ellipse transform="matrix(-0.9391 0.3438 -0.3438 -0.9391 1463.86 616.9472)" fill="#F9F6C1" cx="677.2" cy="438.2" rx="1.3" ry="1.4"/>
		
			<ellipse transform="matrix(-0.9391 0.3438 -0.3438 -0.9391 1483.9656 657.6055)" fill="#F9F6C1" cx="683.7" cy="460.3" rx="1.3" ry="1.4"/>
		
			<ellipse transform="matrix(-0.9388 0.3445 -0.3445 -0.9388 1563.6514 651.7598)" fill="#F9F6C1" cx="723.9" cy="464.8" rx="1.3" ry="1.4"/>
		
			<ellipse transform="matrix(-0.9391 0.3438 -0.3438 -0.9391 935.9712 641.5364)" fill="#F9F6C1" cx="411.1" cy="403.7" rx="1.3" ry="1.4"/>
		
			<ellipse transform="matrix(-0.9391 0.3438 -0.3438 -0.9391 956.0768 682.1947)" fill="#F9F6C1" cx="417.6" cy="425.8" rx="1.3" ry="1.4"/>
		
			<ellipse transform="matrix(-0.9389 0.3443 -0.3443 -0.9389 1035.7587 676.6562)" fill="#F9F6C1" cx="457.8" cy="430.3" rx="1.3" ry="1.4"/>
		<path fill="#F9F6C1" d="M446.8,400.8c-0.3-0.7,0.1-1.5,0.7-1.7c0.7-0.2,1.4,0.1,1.7,0.8c0.3,0.7-0.1,1.5-0.7,1.7
			C447.8,401.8,447,401.5,446.8,400.8z"/>
		
			<ellipse transform="matrix(-0.9391 0.3438 -0.3438 -0.9391 1248.9042 609.0599)" fill="#F9F6C1" cx="570.5" cy="415.2" rx="1.3" ry="1.4"/>
		
			<ellipse transform="matrix(-0.9391 0.3438 -0.3438 -0.9391 1269.0107 649.7165)" fill="#F9F6C1" cx="576.9" cy="437.3" rx="1.3" ry="1.4"/>
		<path fill="#F9F6C1" d="M606.1,412.3c-0.3-0.7,0.1-1.5,0.7-1.7c0.7-0.2,1.4,0.1,1.7,0.8c0.3,0.7-0.1,1.5-0.7,1.7
			C607.1,413.3,606.4,413,606.1,412.3z"/>
		<ellipse fill="#F9F6C1" cx="5.8" cy="696.8" rx="1.4" ry="1.3"/>
		<ellipse fill="#F9F6C1" cx="65.4" cy="780.2" rx="1.4" ry="1.3"/>
		<ellipse fill="#F9F6C1" cx="589" cy="700.1" rx="1.4" ry="1.3"/>
		<ellipse fill="#F9F6C1" cx="739.7" cy="628.7" rx="1.4" ry="1.3"/>
		<ellipse fill="#F9F6C1" cx="752.6" cy="770.6" rx="1.4" ry="1.3"/>
		<ellipse fill="#F9F6C1" cx="60.6" cy="425.6" rx="1.3" ry="1.4"/>
		<ellipse fill="#F9F6C1" cx="621.3" cy="612.9" rx="1.4" ry="1.3"/>
		<ellipse fill="#F9F6C1" cx="18.7" cy="649.1" rx="1.4" ry="1.3"/>
		<ellipse fill="#F9F6C1" cx="131.6" cy="422" rx="1.3" ry="1.4"/>
		<ellipse fill="#F9F6C1" cx="755.8" cy="791.9" rx="2.3" ry="2.1"/>
		<ellipse fill="#F9F6C1" cx="14.5" cy="493.7" rx="1.3" ry="1.4"/>
		<ellipse fill="#F9F6C1" cx="212.4" cy="455.4" rx="1.3" ry="1.4"/>
		<ellipse fill="#F9F6C1" cx="578" cy="548.1" rx="1.4" ry="1.3"/>
		<ellipse fill="#F9F6C1" cx="205.6" cy="433.3" rx="1.3" ry="1.4"/>
		<ellipse fill="#F9F6C1" cx="265.6" cy="419.3" rx="1.3" ry="1.4"/>
		<ellipse fill="#F9F6C1" cx="289" cy="793.6" rx="1.4" ry="1.3"/>
		<ellipse fill="#F9F6C1" cx="522.8" cy="532.4" rx="1.4" ry="1.3"/>
		
			<ellipse transform="matrix(1 4.061133e-03 -4.061133e-03 1 1.9527 -0.6896)" fill="#F9F6C1" cx="170.8" cy="480.5" rx="1.3" ry="1.4"/>
		<ellipse fill="#F9F6C1" cx="353.5" cy="711.5" rx="1.4" ry="1.3"/>
		<ellipse fill="#F9F6C1" cx="478" cy="652.9" rx="1.4" ry="1.3"/>
		<ellipse fill="#F9F6C1" cx="450.9" cy="522.6" rx="1.4" ry="1.3"/>
		<ellipse fill="#F9F6C1" cx="473" cy="515.7" rx="1.4" ry="1.3"/>
		<ellipse fill="#F9F6C1" cx="160.3" cy="475" rx="1.3" ry="1.4"/>
		<ellipse fill="#F9F6C1" cx="88.6" cy="729.3" rx="1.4" ry="1.3"/>
		<ellipse fill="#F9F6C1" cx="701.8" cy="620.4" rx="1.4" ry="1.3"/>
		<ellipse fill="#F9F6C1" cx="419.8" cy="776" rx="1.4" ry="1.3"/>
		<ellipse fill="#F9F6C1" cx="414.9" cy="638.8" rx="1.4" ry="1.3"/>
		<ellipse fill="#F9F6C1" cx="542.7" cy="709.5" rx="1.4" ry="1.3"/>
		<ellipse fill="#F9F6C1" cx="613" cy="591.6" rx="1.4" ry="1.3"/>
		<ellipse fill="#F9F6C1" cx="622" cy="739.4" rx="1.4" ry="1.3"/>
		<ellipse fill="#F9F6C1" cx="709.9" cy="703" rx="1.4" ry="1.3"/>
		<ellipse fill="#F9F6C1" cx="262.6" cy="637.6" rx="1.4" ry="1.3"/>
		<ellipse fill="#F9F6C1" cx="50.6" cy="791.8" rx="1.4" ry="1.3"/>
		<ellipse fill="#F9F6C1" cx="544.5" cy="670.8" rx="1.4" ry="1.3"/>
		<ellipse fill="#F9F6C1" cx="195.8" cy="598.8" rx="1.4" ry="1.3"/>
		<ellipse fill="#F9F6C1" cx="93.2" cy="418.9" rx="1.3" ry="1.4"/>
		<ellipse fill="#F9F6C1" cx="53.6" cy="739.2" rx="1.4" ry="1.3"/>
		
			<ellipse transform="matrix(1 4.019693e-03 -4.019693e-03 1 2.3348 -0.3377)" fill="#F9F6C1" cx="85.2" cy="580.7" rx="1.3" ry="1.4"/>
		<ellipse fill="#F9F6C1" cx="643.5" cy="760.6" rx="1.4" ry="1.3"/>
		<ellipse fill="#F9F6C1" cx="557.1" cy="771.1" rx="1.4" ry="1.3"/>
		<ellipse fill="#F9F6C1" cx="7.2" cy="660.6" rx="1.4" ry="1.3"/>
		
			<ellipse transform="matrix(-0.3365 0.9417 -0.9417 -0.3365 1246.2749 444.3458)" fill="#F9F6C1" cx="466.6" cy="661.2" rx="1.3" ry="1.4"/>
		<path fill="#F9F6C1" d="M419.5,629c-0.7-0.3-1.1-1-0.9-1.7c0.2-0.7,1-1,1.7-0.7s1.1,1,0.9,1.7C421,628.9,420.2,629.2,419.5,629z"
			/>
		
			<ellipse transform="matrix(-0.3361 0.9418 -0.9418 -0.3361 1208.6188 641.7086)" fill="#F9F6C1" cx="378.1" cy="746.9" rx="1.3" ry="1.4"/>
		
			<ellipse transform="matrix(-0.3361 0.9418 -0.9418 -0.3361 1212.5616 622.8132)" fill="#F9F6C1" cx="386.8" cy="738.8" rx="1.3" ry="1.4"/>
		
			<ellipse transform="matrix(-0.3364 0.9417 -0.9417 -0.3364 1113.3673 429.4396)" fill="#F9F6C1" cx="405.4" cy="607" rx="1.3" ry="1.4"/>
		
			<ellipse transform="matrix(-0.3361 0.9418 -0.9418 -0.3361 1145.0563 408.7708)" fill="#F9F6C1" cx="428.4" cy="608" rx="1.3" ry="1.4"/>
		<ellipse fill="#F9F6C1" cx="550.2" cy="504" rx="1.4" ry="1.3"/>
		<ellipse fill="#F9F6C1" cx="518.7" cy="503" rx="1.4" ry="1.3"/>
		<ellipse fill="#F9F6C1" cx="491.9" cy="543.6" rx="1.4" ry="1.3"/>
		<ellipse fill="#F9F6C1" cx="497.3" cy="533" rx="1.4" ry="1.3"/>
		
			<ellipse transform="matrix(1 4.064927e-03 -4.064927e-03 1 1.9096 -0.3248)" fill="#F9F6C1" cx="80.9" cy="469.6" rx="1.3" ry="1.4"/>
		<ellipse fill="#F9F6C1" cx="715.1" cy="497.4" rx="1.4" ry="1.3"/>
		<ellipse fill="#F9F6C1" cx="719.1" cy="568.3" rx="1.4" ry="1.3"/>
		<ellipse fill="#F9F6C1" cx="660.8" cy="607.9" rx="1.4" ry="1.3"/>
		<ellipse fill="#F9F6C1" cx="666.2" cy="597.4" rx="1.4" ry="1.3"/>
		<ellipse fill="#F9F6C1" cx="540.5" cy="726.4" rx="1.4" ry="1.3"/>
		<ellipse fill="#F9F6C1" cx="485.3" cy="710.7" rx="1.4" ry="1.3"/>
		<ellipse fill="#F9F6C1" cx="512.9" cy="796.3" rx="1.4" ry="1.3"/>
		<ellipse fill="#F9F6C1" cx="464.5" cy="696" rx="1.4" ry="1.3"/>
		<ellipse fill="#F9F6C1" cx="486.6" cy="689.2" rx="1.4" ry="1.3"/>
		
			<ellipse transform="matrix(0.9705 0.2411 -0.2411 0.9705 190.3775 -41.0101)" fill="#F9F6C1" cx="262.8" cy="757.5" rx="1.3" ry="1.4"/>
		
			<ellipse transform="matrix(0.9705 0.2412 -0.2412 0.9705 195.7595 -57.4597)" fill="#F9F6C1" cx="332.6" cy="770.9" rx="1.3" ry="1.4"/>
		<ellipse fill="#F9F6C1" cx="524.5" cy="605" rx="1.4" ry="1.3"/>
		<ellipse fill="#F9F6C1" cx="528.4" cy="675.9" rx="1.4" ry="1.3"/>
		<ellipse fill="#F9F6C1" cx="469.3" cy="589.3" rx="1.4" ry="1.3"/>
		<ellipse fill="#F9F6C1" cx="496.9" cy="674.9" rx="1.4" ry="1.3"/>
		<ellipse fill="#F9F6C1" cx="475.6" cy="705" rx="1.4" ry="1.3"/>
		<ellipse fill="#F9F6C1" cx="448.5" cy="574.6" rx="1.4" ry="1.3"/>
		<ellipse fill="#F9F6C1" cx="470.6" cy="567.8" rx="1.4" ry="1.3"/>
		
			<ellipse transform="matrix(-0.99 -0.1407 0.1407 -0.99 399.5001 1135.451)" fill="#F9F6C1" cx="239.9" cy="553.6" rx="1.3" ry="1.4"/>
		
			<ellipse transform="matrix(-0.9899 -0.1416 0.1416 -0.9899 -7.1015 1042.3805)" fill="#F9F6C1" cx="33.5" cy="521.4" rx="1.3" ry="1.4"/>
		<ellipse transform="matrix(-0.99 -0.1408 0.1408 -0.99 -56.1647 964.8154)" fill="#F9F6C1" cx="6" cy="484.4" rx="1.3" ry="1.4"/>
		
			<ellipse transform="matrix(-0.99 -0.1408 0.1408 -0.99 263.3249 1090.0911)" fill="#F9F6C1" cx="170.2" cy="535.7" rx="1.3" ry="1.4"/>
		
			<ellipse transform="matrix(0.1346 -0.9909 0.9909 0.1346 -603.8129 856.3576)" fill="#F9F6C1" cx="188.4" cy="773.9" rx="1.3" ry="1.4"/>
		
			<ellipse transform="matrix(-0.99 -0.1407 0.1407 -0.99 213.8793 1035.7616)" fill="#F9F6C1" cx="143.6" cy="510.3" rx="1.3" ry="1.4"/>
		
			<ellipse transform="matrix(-0.99 -0.1409 0.1409 -0.99 -18.8528 930.6065)" fill="#F9F6C1" cx="23.5" cy="466" rx="1.3" ry="1.4"/>
		
			<ellipse transform="matrix(-0.99 -0.1408 0.1408 -0.99 -14.7598 976.4954)" fill="#F9F6C1" cx="27.2" cy="488.8" rx="1.3" ry="1.4"/>
		<ellipse fill="#F9F6C1" cx="766.8" cy="673.9" rx="1.4" ry="1.3"/>
		<ellipse fill="#F9F6C1" cx="770.8" cy="744.8" rx="1.4" ry="1.3"/>
		<ellipse fill="#F9F6C1" cx="739.2" cy="743.8" rx="1.4" ry="1.3"/>
		<ellipse fill="#F9F6C1" cx="712.5" cy="784.4" rx="1.4" ry="1.3"/>
		<ellipse fill="#F9F6C1" cx="717.9" cy="773.9" rx="1.4" ry="1.3"/>
		<ellipse fill="#F9F6C1" cx="712.9" cy="636.7" rx="1.4" ry="1.3"/>
		<ellipse fill="#F9F6C1" cx="512" cy="744.9" rx="1.4" ry="1.3"/>
		<ellipse fill="#F9F6C1" cx="297.8" cy="646.3" rx="1.4" ry="1.3"/>
		<ellipse fill="#F9F6C1" cx="584.1" cy="719.1" rx="1.4" ry="1.3"/>
		<ellipse fill="#F9F6C1" cx="147.1" cy="714.1" rx="1.4" ry="1.3"/>
		<ellipse fill="#F9F6C1" cx="633.3" cy="701.5" rx="1.4" ry="1.3"/>
		<ellipse fill="#F9F6C1" cx="656.6" cy="755.6" rx="1.4" ry="1.3"/>
		<ellipse fill="#F9F6C1" cx="79.3" cy="630.7" rx="1.4" ry="1.3"/>
		
			<ellipse transform="matrix(0.9588 0.284 -0.284 0.9588 194.7762 -35.89)" fill="#F9F6C1" cx="221.2" cy="653.8" rx="1.3" ry="1.4"/>
		
			<ellipse transform="matrix(0.959 0.2833 -0.2833 0.959 222.4297 -23.4092)" fill="#F9F6C1" cx="192.2" cy="757.4" rx="1.3" ry="1.4"/>
		
			<ellipse transform="matrix(0.959 0.2833 -0.2833 0.959 245.4055 -154.5556)" fill="#F9F6C1" cx="657.1" cy="771.3" rx="1.3" ry="1.4"/>
		
			<ellipse transform="matrix(0.9588 0.2839 -0.2839 0.9588 211.5241 -149.649)" fill="#F9F6C1" cx="622" cy="654.9" rx="1.3" ry="1.4"/>
		<ellipse fill="#F9F6C1" cx="313.5" cy="494.7" rx="1.4" ry="1.3"/>
		<ellipse fill="#F9F6C1" cx="711.3" cy="747.1" rx="1.4" ry="1.3"/>
		<ellipse fill="#F9F6C1" cx="246.9" cy="623.2" rx="1.4" ry="1.3"/>
		<ellipse fill="#F9F6C1" cx="269.9" cy="624.7" rx="1.4" ry="1.3"/>
		<ellipse fill="#F9F6C1" cx="287.8" cy="588.4" rx="1.4" ry="1.3"/>
		<ellipse fill="#F9F6C1" cx="256.3" cy="587.4" rx="1.4" ry="1.3"/>
		<ellipse fill="#F9F6C1" cx="192.6" cy="612" rx="1.4" ry="1.3"/>
		<ellipse fill="#F9F6C1" cx="215.6" cy="613.5" rx="1.4" ry="1.3"/>
		<ellipse fill="#F9F6C1" cx="233.5" cy="577.2" rx="1.4" ry="1.3"/>
		<ellipse fill="#F9F6C1" cx="202" cy="576.2" rx="1.4" ry="1.3"/>
		<path fill="#F9F6C1" d="M29.9,668.3c-0.3-0.7-0.1-1.5,0.5-1.8c0.6-0.3,1.4,0,1.7,0.7c0.3,0.7,0.1,1.5-0.5,1.8
			C31.1,669.3,30.3,669,29.9,668.3z"/>
		
			<ellipse transform="matrix(-0.8992 0.4375 -0.4375 -0.8992 376.9261 1291.3619)" fill="#F9F6C1" cx="39.7" cy="689.1" rx="1.3" ry="1.4"/>
		
			<ellipse transform="matrix(-0.8995 0.4368 -0.4368 -0.8995 453.5289 1274.6185)" fill="#F9F6C1" cx="80.2" cy="689.5" rx="1.3" ry="1.4"/>
		
			<ellipse transform="matrix(-0.8995 0.4368 -0.4368 -0.8995 618.6258 1188.4706)" fill="#F9F6C1" cx="172.7" cy="665.4" rx="1.3" ry="1.4"/>
		
			<ellipse transform="matrix(-0.8992 0.4375 -0.4375 -0.8992 696.0531 1171.1171)" fill="#F9F6C1" cx="213.1" cy="665.7" rx="1.3" ry="1.4"/>
		
			<ellipse transform="matrix(-0.8994 0.4372 -0.4372 -0.8994 658.9194 1122.17)" fill="#F9F6C1" cx="200.3" cy="636.9" rx="1.3" ry="1.4"/>
		
			<ellipse transform="matrix(-0.8995 0.4368 -0.4368 -0.8995 1025.0398 780.0532)" fill="#F9F6C1" cx="422.8" cy="507.9" rx="1.3" ry="1.4"/>
		
			<ellipse transform="matrix(-0.8996 0.4368 -0.4368 -0.8996 1050.7733 816.8577)" fill="#F9F6C1" cx="431.5" cy="529.2" rx="1.3" ry="1.4"/>
		
			<ellipse transform="matrix(-0.8995 0.4368 -0.4368 -0.8995 1127.8394 799.8256)" fill="#F9F6C1" cx="471.9" cy="529.6" rx="1.3" ry="1.4"/>
		
			<ellipse transform="matrix(-0.8997 0.4365 -0.4365 -0.8997 1090.8049 750.9397)" fill="#F9F6C1" cx="459.1" cy="500.8" rx="1.3" ry="1.4"/>
		
			<ellipse transform="matrix(-0.3492 -0.9371 0.9371 -0.3492 -449.6892 940.7725)" fill="#F9F6C1" cx="101.9" cy="626.5" rx="1.3" ry="1.4"/>
		<path fill="#F9F6C1" d="M79.3,631.9c0.7-0.3,1.5,0.1,1.7,0.7c0.2,0.7-0.1,1.4-0.8,1.7c-0.7,0.3-1.5-0.1-1.7-0.7
			C78.3,632.9,78.6,632.2,79.3,631.9z"/>
		
			<ellipse transform="matrix(-0.3494 -0.937 0.937 -0.3494 -479.2363 993.9684)" fill="#F9F6C1" cx="105.5" cy="663.4" rx="1.3" ry="1.4"/>
		
			<ellipse transform="matrix(-0.3499 -0.9368 0.9368 -0.3499 -27.0651 1026.0598)" fill="#F9F6C1" cx="342.5" cy="522.4" rx="1.3" ry="1.4"/>
		
			<ellipse transform="matrix(-0.3496 -0.9369 0.9369 -0.3496 22.5233 1040.4515)" fill="#F9F6C1" cx="372.4" cy="512.4" rx="1.3" ry="1.4"/>
		
			<ellipse transform="matrix(-0.9391 0.3438 -0.3438 -0.9391 219.0724 1060.9893)" fill="#F9F6C1" cx="15.5" cy="549.9" rx="1.3" ry="1.4"/>
		
			<ellipse transform="matrix(-0.9391 0.3438 -0.3438 -0.9391 239.1765 1101.6479)" fill="#F9F6C1" cx="21.9" cy="572" rx="1.3" ry="1.4"/>
		
			<ellipse transform="matrix(-0.9388 0.3445 -0.3445 -0.9388 319.1153 1096.2294)" fill="#F9F6C1" cx="62.2" cy="576.5" rx="1.3" ry="1.4"/>
		<path fill="#F9F6C1" d="M51.1,546.9c-0.3-0.7,0.1-1.5,0.7-1.7c0.7-0.2,1.4,0.1,1.7,0.8c0.3,0.7-0.1,1.5-0.7,1.7
			C52.1,548,51.4,547.6,51.1,546.9z"/>
		
			<ellipse transform="matrix(-0.9747 -0.2237 0.2237 -0.9747 807.8177 955.9233)" fill="#F9F6C1" cx="458.1" cy="432.2" rx="1" ry="1"/>
		
			<ellipse transform="matrix(-0.9745 -0.2245 0.2245 -0.9745 909.8163 901.5687)" fill="#F9F6C1" cx="506.2" cy="399.1" rx="1" ry="1"/>
		
			<ellipse transform="matrix(-0.9748 -0.2232 0.2232 -0.9748 1611.3312 1349.7843)" fill="#F9F6C1" cx="881.9" cy="583.8" rx="1" ry="1"/>
		
			<ellipse transform="matrix(-0.9747 -0.2233 0.2233 -0.9747 1837.9131 1140.7156)" fill="#F9F6C1" cx="983.5" cy="466.4" rx="1" ry="1"/>
		
			<ellipse transform="matrix(-0.9747 -0.2234 0.2234 -0.9747 1745.8163 1173.1663)" fill="#F9F6C1" cx="939.3" cy="487.8" rx="1" ry="1"/>
		
			<ellipse transform="matrix(-0.9747 -0.2235 0.2235 -0.9747 1886.0917 1142.9288)" fill="#F9F6C1" cx="1007.7" cy="464.8" rx="1" ry="1"/>
		
			<ellipse transform="matrix(-0.9745 -0.2242 0.2242 -0.9745 1771.4276 1040.9789)" fill="#F9F6C1" cx="944.8" cy="419.9" rx="1" ry="1"/>
		
			<ellipse transform="matrix(-0.9743 -0.2251 0.2251 -0.9743 1839.1313 1024.8724)" fill="#F9F6C1" cx="978" cy="407.6" rx="1" ry="1"/>
		
			<ellipse transform="matrix(-0.9745 -0.2244 0.2244 -0.9745 1712.7668 1296.0763)" fill="#F9F6C1" cx="930" cy="550.7" rx="1" ry="1"/>
		<path fill="#F9F6C1" d="M949.9,512.8c0.1-0.6,0.6-0.9,1.2-0.8c0.5,0.1,0.8,0.7,0.7,1.2c-0.1,0.6-0.6,0.9-1.2,0.8
			C950.1,513.9,949.8,513.4,949.9,512.8z"/>
		
			<ellipse transform="matrix(-0.9744 -0.2246 0.2246 -0.9744 1793.1678 1204.722)" fill="#F9F6C1" cx="965.1" cy="500.4" rx="1" ry="1"/>
		
			<ellipse transform="matrix(-0.4932 0.8699 -0.8699 -0.4932 1902.749 -235.6986)" fill="#F9F6C1" cx="1020" cy="436.4" rx="1" ry="1"/>
		
			<ellipse transform="matrix(0.2246 -0.9744 0.9744 0.2246 412.7885 1337.7245)" fill="#F9F6C1" cx="1047" cy="409.5" rx="1.7" ry="1.6"/>
		
			<ellipse transform="matrix(0.9919 -0.1272 0.1272 0.9919 -45.1044 121.577)" fill="#F9F6C1" cx="929.1" cy="413.8" rx="1" ry="1"/>
		
			<ellipse transform="matrix(0.9919 -0.1272 0.1272 0.9919 -48.876 131.2479)" fill="#F9F6C1" cx="1003.4" cy="448.4" rx="1" ry="1"/>
		
			<ellipse transform="matrix(0.9918 -0.1278 0.1278 0.9918 -46.8779 131.6267)" fill="#F9F6C1" cx="1002.3" cy="431.1" rx="1" ry="1"/>
		
			<ellipse transform="matrix(0.9918 -0.1279 0.1279 0.9918 -45.8869 128.0224)" fill="#F9F6C1" cx="973.6" cy="421.2" rx="1" ry="1"/>
		
			<ellipse transform="matrix(-0.9745 -0.2242 0.2242 -0.9745 61.9737 1211.2416)" fill="#F9F6C1" cx="99.8" cy="602.1" rx="1" ry="1"/>
		
			<ellipse transform="matrix(-0.9745 -0.2243 0.2243 -0.9745 288.662 1002.2074)" fill="#F9F6C1" cx="201.3" cy="484.7" rx="1" ry="1"/>
		
			<ellipse transform="matrix(-0.9745 -0.2245 0.2245 -0.9745 196.519 1034.5178)" fill="#F9F6C1" cx="157.1" cy="506.1" rx="1" ry="1"/>
		
			<ellipse transform="matrix(-0.9745 -0.2244 0.2244 -0.9745 336.8661 1004.3373)" fill="#F9F6C1" cx="225.5" cy="483" rx="1" ry="1"/>
		
			<ellipse transform="matrix(-0.9745 -0.2245 0.2245 -0.9745 222.7055 901.6865)" fill="#F9F6C1" cx="162.6" cy="438.2" rx="1" ry="1"/>
		
			<ellipse transform="matrix(-0.9743 -0.2251 0.2251 -0.9743 290.6841 884.8802)" fill="#F9F6C1" cx="195.8" cy="425.9" rx="1" ry="1"/>
		
			<ellipse transform="matrix(-0.9745 -0.2244 0.2244 -0.9745 164.2294 1156.6005)" fill="#F9F6C1" cx="147.8" cy="569" rx="1" ry="1"/>
		
			<ellipse transform="matrix(-0.9743 -0.2254 0.2254 -0.9743 213.2789 1086.9156)" fill="#F9F6C1" cx="168.7" cy="531.3" rx="1" ry="1"/>
		
			<ellipse transform="matrix(-0.9744 -0.2246 0.2246 -0.9744 244.6606 1065.1099)" fill="#F9F6C1" cx="182.9" cy="518.6" rx="1" ry="1"/>
		
			<ellipse transform="matrix(-0.4937 0.8697 -0.8697 -0.4937 750.6607 472.295)" fill="#F9F6C1" cx="237.8" cy="454.7" rx="1" ry="1"/>
		
			<ellipse transform="matrix(0.2246 -0.9744 0.9744 0.2246 -211.4936 589.6908)" fill="#F9F6C1" cx="264.8" cy="427.7" rx="1.7" ry="1.6"/>
		
			<ellipse transform="matrix(0.9919 -0.1273 0.1273 0.9919 -53.8004 22.2109)" fill="#F9F6C1" cx="146.9" cy="432.1" rx="1" ry="1"/>
		
			<ellipse transform="matrix(0.9918 -0.1276 0.1276 0.9918 -51.7498 22.0051)" fill="#F9F6C1" cx="145.9" cy="414.9" rx="1" ry="1"/>
		<path fill="#F9F6C1" d="M222.1,466.5c0.1,0.6-0.3,1.1-0.8,1.1c-0.5,0.1-1-0.3-1.1-0.9c-0.1-0.6,0.3-1.1,0.8-1.1
			C221.6,465.6,222.1,466,222.1,466.5z"/>
		
			<ellipse transform="matrix(0.9919 -0.1273 0.1273 0.9919 -55.4199 31.6818)" fill="#F9F6C1" cx="220.1" cy="449.4" rx="1" ry="1"/>
		<ellipse transform="matrix(0.9919 -0.1271 0.1271 0.9919 -54.3081 27.899)" fill="#F9F6C1" cx="191.5" cy="439.5" rx="1" ry="1"/>
		<ellipse transform="matrix(0.9917 -0.1284 0.1284 0.9917 -57.8531 28.7037)" fill="#F9F6C1" cx="193.7" cy="463" rx="1" ry="1"/>
		
			<ellipse transform="matrix(-0.9748 -0.2232 0.2232 -0.9748 174.6271 1029.7075)" fill="#F9F6C1" cx="145.5" cy="505" rx="1" ry="1"/>
		<ellipse transform="matrix(-0.9746 -0.224 0.224 -0.9746 308.9066 852.9814)" fill="#F9F6C1" cx="202.8" cy="409" rx="1" ry="1"/>
		
			<ellipse transform="matrix(-0.9745 -0.2244 0.2244 -0.9745 276.3738 975.1104)" fill="#F9F6C1" cx="193.6" cy="471.8" rx="1" ry="1"/>
		
			<ellipse transform="matrix(-0.9743 -0.2254 0.2254 -0.9743 325.4977 905.493)" fill="#F9F6C1" cx="214.4" cy="434.2" rx="1" ry="1"/>
		
			<ellipse transform="matrix(-0.9744 -0.2246 0.2246 -0.9744 356.8202 883.6323)" fill="#F9F6C1" cx="228.7" cy="421.5" rx="1" ry="1"/>
		
			<ellipse transform="matrix(0.5807 0.8141 -0.8141 0.5807 419.1194 -16.339)" fill="#F9F6C1" cx="225.4" cy="398.7" rx="0.7" ry="0.8"/>
		
			<ellipse transform="matrix(-0.8266 -0.5628 0.5628 -0.8266 191.6384 878.9512)" fill="#F9F6C1" cx="231.2" cy="410" rx="0.7" ry="0.8"/>
		
			<ellipse transform="matrix(-0.8269 -0.5624 0.5624 -0.8269 146.7145 868.7562)" fill="#F9F6C1" cx="207.1" cy="411.8" rx="1.6" ry="1.7"/>
		
			<ellipse transform="matrix(-0.827 -0.5623 0.5623 -0.827 171.6293 893.124)" fill="#F9F6C1" cx="223.2" cy="420.2" rx="0.7" ry="0.8"/>
		
			<ellipse transform="matrix(0.581 0.8139 -0.8139 0.581 816.1966 -546.0595)" fill="#F9F6C1" cx="938.4" cy="519.7" rx="0.7" ry="0.8"/>
		
			<ellipse transform="matrix(0.5807 0.8141 -0.8141 0.5807 803.7134 -470.3737)" fill="#F9F6C1" cx="858.5" cy="545.1" rx="0.7" ry="0.8"/>
		
			<ellipse transform="matrix(0.5805 0.8143 -0.8143 0.5805 702.8822 -440.8301)" fill="#F9F6C1" cx="779.3" cy="461.7" rx="0.7" ry="0.8"/>
		
			<ellipse transform="matrix(0.58 0.8146 -0.8146 0.58 799.66 -409.3908)" fill="#F9F6C1" cx="796.9" cy="570.8" rx="0.7" ry="0.8"/>
		
			<ellipse transform="matrix(0.581 0.8139 -0.8139 0.581 865.608 -543.4539)" fill="#F9F6C1" cx="960.6" cy="569" rx="0.7" ry="0.8"/>
		<path fill="#F9F6C1" d="M864.9,525.7c-0.3,0.2-0.8,0.2-1-0.1c-0.2-0.3-0.1-0.8,0.2-1c0.3-0.2,0.8-0.2,1,0.1
			C865.4,525,865.3,525.5,864.9,525.7z"/>
		
			<ellipse transform="matrix(0.58 0.8146 -0.8146 0.58 784.9219 -472.0499)" fill="#F9F6C1" cx="850.2" cy="525.2" rx="0.7" ry="0.8"/>
		
			<ellipse transform="matrix(-0.8263 -0.5633 0.5633 -0.8263 1177.8145 1546.5691)" fill="#F9F6C1" cx="827.4" cy="591.6" rx="0.7" ry="0.8"/>
		
			<ellipse transform="matrix(-0.8268 -0.5625 0.5625 -0.8268 1133.5979 1536.0137)" fill="#F9F6C1" cx="803.3" cy="593.5" rx="1.6" ry="1.7"/>
		
			<ellipse transform="matrix(-0.827 -0.5623 0.5623 -0.827 1165.8721 1429.4213)" fill="#F9F6C1" cx="802.9" cy="535.3" rx="0.7" ry="0.8"/>
		
			<ellipse transform="matrix(-0.8269 -0.5623 0.5623 -0.8269 1145.4918 1443.5902)" fill="#F9F6C1" cx="794.9" cy="545.5" rx="0.7" ry="0.8"/>
		
			<ellipse transform="matrix(-0.8265 -0.563 0.563 -0.8265 1153.9735 1486.4122)" fill="#F9F6C1" cx="806.1" cy="565.4" rx="0.7" ry="0.8"/>
		
			<ellipse transform="matrix(-0.8267 -0.5627 0.5627 -0.8267 1181.5309 1465.968)" fill="#F9F6C1" cx="816.5" cy="551" rx="0.7" ry="0.8"/>
		
			<ellipse transform="matrix(0.5802 0.8145 -0.8145 0.5802 831.3423 -309.2665)" fill="#F9F6C1" cx="715.7" cy="651.8" rx="1.6" ry="1.7"/>
		
			<ellipse transform="matrix(0.5805 0.8143 -0.8143 0.5805 826.243 -330.7824)" fill="#F9F6C1" cx="734.1" cy="636.5" rx="0.7" ry="0.8"/>
		
			<ellipse transform="matrix(0.58 0.8146 -0.8146 0.58 821.9332 -269.6996)" fill="#F9F6C1" cx="672.5" cy="662.3" rx="0.7" ry="0.8"/>
		
			<ellipse transform="matrix(0.5793 0.8151 -0.8151 0.5793 813.916 -343.9391)" fill="#F9F6C1" cx="740.2" cy="616.6" rx="0.7" ry="0.8"/>
		
			<ellipse transform="matrix(0.5807 0.8141 -0.8141 0.5807 806.2794 -332.4304)" fill="#F9F6C1" cx="725.9" cy="616.6" rx="0.7" ry="0.8"/>
		
			<ellipse transform="matrix(0.9461 -0.324 0.324 0.9461 -166.7612 248.5782)" fill="#F9F6C1" cx="663.2" cy="625.2" rx="0.7" ry="0.8"/>
		
			<ellipse transform="matrix(-0.8143 0.5804 -0.5804 -0.8143 1515.4237 768.9431)" fill="#F9F6C1" cx="634.7" cy="626.9" rx="1.3" ry="1.2"/>
		
			<ellipse transform="matrix(-0.827 -0.5623 0.5623 -0.827 900.4314 1643.2229)" fill="#F9F6C1" cx="703.1" cy="683.1" rx="0.7" ry="0.8"/>
		
			<ellipse transform="matrix(-0.8269 -0.5624 0.5624 -0.8269 842.0298 1516.3285)" fill="#F9F6C1" cx="654.4" cy="628.6" rx="1.6" ry="1.7"/>
		
			<ellipse transform="matrix(-0.8269 -0.5623 0.5623 -0.8269 866.8704 1540.6825)" fill="#F9F6C1" cx="670.6" cy="636.9" rx="0.7" ry="0.8"/>
		
			<ellipse transform="matrix(0.581 0.8139 -0.8139 0.581 771.3334 -156.9708)" fill="#F9F6C1" cx="538.1" cy="670.6" rx="0.7" ry="0.8"/>
		
			<ellipse transform="matrix(0.5802 0.8145 -0.8145 0.5802 763.9902 -59.5025)" fill="#F9F6C1" cx="439.7" cy="711.4" rx="1.6" ry="1.7"/>
		
			<ellipse transform="matrix(0.5812 0.8138 -0.8138 0.5812 735.3544 -56.6814)" fill="#F9F6C1" cx="422.7" cy="686.1" rx="0.7" ry="0.8"/>
		
			<ellipse transform="matrix(0.5805 0.8143 -0.8143 0.5805 758.9562 -81.0902)" fill="#F9F6C1" cx="458.2" cy="696" rx="0.7" ry="0.8"/>
		<path fill="#F9F6C1" d="M408.7,675.5c-0.3,0.2-0.8,0.2-1-0.1c-0.2-0.3-0.1-0.8,0.2-1c0.3-0.2,0.8-0.2,1,0.1
			C409.1,674.8,409,675.3,408.7,675.5z"/>
		<path fill="#F9F6C1" d="M495,665.9c-0.3,0.2-0.8,0.2-1-0.1c-0.2-0.3-0.1-0.8,0.2-1c0.3-0.2,0.8-0.2,1,0.1
			C495.5,665.2,495.4,665.6,495,665.9z"/>
		
			<ellipse transform="matrix(0.5793 0.8151 -0.8151 0.5793 746.3608 -93.9518)" fill="#F9F6C1" cx="464.2" cy="676.1" rx="0.7" ry="0.8"/>
		
			<ellipse transform="matrix(0.5807 0.8141 -0.8141 0.5807 739.0588 -82.8024)" fill="#F9F6C1" cx="449.9" cy="676.1" rx="0.7" ry="0.8"/>
		
			<ellipse transform="matrix(0.946 -0.324 0.324 0.946 -200.972 162.4289)" fill="#F9F6C1" cx="387.3" cy="684.7" rx="0.7" ry="0.8"/>
		
			<ellipse transform="matrix(-0.8142 0.5805 -0.5805 -0.8142 1049.3397 1037.0852)" fill="#F9F6C1" cx="358.7" cy="686.4" rx="1.3" ry="1.2"/>
		
			<ellipse transform="matrix(-0.8269 -0.5623 0.5623 -0.8269 362.7156 1596.8495)" fill="#F9F6C1" cx="427.1" cy="742.6" rx="0.7" ry="0.8"/>
		
			<ellipse transform="matrix(-0.8269 -0.5624 0.5624 -0.8269 317.4513 1586.626)" fill="#F9F6C1" cx="403" cy="744.4" rx="1.6" ry="1.7"/>
		
			<ellipse transform="matrix(-0.8269 -0.5623 0.5623 -0.8269 342.3879 1610.9956)" fill="#F9F6C1" cx="419.1" cy="752.8" rx="0.7" ry="0.8"/>
		
			<ellipse transform="matrix(-0.8271 -0.562 0.562 -0.8271 349.8728 1480.162)" fill="#F9F6C1" cx="402.6" cy="686.3" rx="0.7" ry="0.8"/>
		
			<ellipse transform="matrix(-0.8269 -0.5623 0.5623 -0.8269 304.4542 1469.933)" fill="#F9F6C1" cx="378.4" cy="688.1" rx="1.6" ry="1.7"/>
		
			<ellipse transform="matrix(-0.8267 -0.5627 0.5627 -0.8267 365.3011 1516.4946)" fill="#F9F6C1" cx="416.2" cy="702" rx="0.7" ry="0.8"/>
		
			<ellipse transform="matrix(0.581 0.8139 -0.8139 0.581 575.8192 106.0846)" fill="#F9F6C1" cx="184.9" cy="612.3" rx="0.7" ry="0.8"/>
		
			<ellipse transform="matrix(0.5805 0.8142 -0.8142 0.5805 568.0051 203.5138)" fill="#F9F6C1" cx="86.5" cy="653" rx="1.6" ry="1.7"/>
		
			<ellipse transform="matrix(0.5811 0.8138 -0.8138 0.5811 562.8917 181.6924)" fill="#F9F6C1" cx="104.9" cy="637.7" rx="0.7" ry="0.8"/>
		
			<ellipse transform="matrix(0.58 0.8146 -0.8146 0.58 558.6547 243.3687)" fill="#F9F6C1" cx="43.3" cy="663.5" rx="0.7" ry="0.8"/>
		
			<ellipse transform="matrix(0.5805 0.8142 -0.8142 0.5805 553.5328 139.4791)" fill="#F9F6C1" cx="141.4" cy="607" rx="0.7" ry="0.8"/>
		<path fill="#F9F6C1" d="M111.4,618.3c-0.3,0.2-0.8,0.2-1-0.1c-0.2-0.3-0.1-0.8,0.2-1c0.3-0.2,0.8-0.2,1,0.1
			C111.8,617.6,111.7,618.1,111.4,618.3z"/>
		
			<ellipse transform="matrix(0.58 0.8146 -0.8146 0.58 543.8438 180.6912)" fill="#F9F6C1" cx="96.7" cy="617.8" rx="0.7" ry="0.8"/>
		
			<ellipse transform="matrix(-0.827 -0.5623 0.5623 -0.827 -270.1043 1305.791)" fill="#F9F6C1" cx="65.9" cy="694.5" rx="0.7" ry="0.8"/>
		
			<ellipse transform="matrix(0.5809 0.814 -0.814 0.5809 622.8732 115.7048)" fill="#F9F6C1" cx="199.1" cy="662.7" rx="0.7" ry="0.8"/>
		
			<ellipse transform="matrix(0.5802 0.8145 -0.8145 0.5802 615.2401 213.3284)" fill="#F9F6C1" cx="100.7" cy="703.5" rx="1.6" ry="1.7"/>
		
			<ellipse transform="matrix(0.5812 0.8138 -0.8138 0.5812 586.935 215.925)" fill="#F9F6C1" cx="83.7" cy="678.2" rx="0.7" ry="0.8"/>
		
			<ellipse transform="matrix(0.5805 0.8143 -0.8143 0.5805 610.3069 191.6792)" fill="#F9F6C1" cx="119.1" cy="688.1" rx="0.7" ry="0.8"/>
		
			<ellipse transform="matrix(0.5807 0.8141 -0.8141 0.5807 623.4844 236.3837)" fill="#F9F6C1" cx="82.2" cy="723.5" rx="0.7" ry="0.8"/>
		
			<ellipse transform="matrix(0.58 0.8146 -0.8146 0.58 605.7212 253.0004)" fill="#F9F6C1" cx="57.5" cy="713.9" rx="0.7" ry="0.8"/>
		<path fill="#F9F6C1" d="M156,658c-0.3,0.2-0.8,0.2-1-0.1c-0.2-0.3-0.1-0.8,0.2-1c0.3-0.2,0.8-0.2,1,0.1
			C156.4,657.3,156.3,657.8,156,658z"/>
		
			<ellipse transform="matrix(0.5793 0.8151 -0.8151 0.5793 597.3102 179.0825)" fill="#F9F6C1" cx="125.2" cy="668.2" rx="0.7" ry="0.8"/>
		
			<ellipse transform="matrix(0.5807 0.8141 -0.8141 0.5807 590.5214 189.9325)" fill="#F9F6C1" cx="110.9" cy="668.2" rx="0.7" ry="0.8"/>
		
			<ellipse transform="matrix(0.946 -0.324 0.324 0.946 -216.7105 52.1451)" fill="#F9F6C1" cx="48.2" cy="676.8" rx="0.7" ry="0.8"/>
		
			<ellipse transform="matrix(-0.8142 0.5806 -0.5806 -0.8142 429.6682 1219.5948)" fill="#F9F6C1" cx="19.7" cy="678.5" rx="1.3" ry="1.2"/>
		
			<ellipse transform="matrix(-0.8269 -0.5623 0.5623 -0.8269 -252.2613 1391.7969)" fill="#F9F6C1" cx="88.1" cy="734.7" rx="0.7" ry="0.8"/>
		
			<ellipse transform="matrix(-0.8268 -0.5624 0.5624 -0.8268 -297.5099 1381.5278)" fill="#F9F6C1" cx="63.9" cy="736.6" rx="1.6" ry="1.7"/>
		
			<ellipse transform="matrix(-0.8269 -0.5623 0.5623 -0.8269 -272.6162 1405.9286)" fill="#F9F6C1" cx="80.1" cy="744.9" rx="0.7" ry="0.8"/>
		
			<ellipse transform="matrix(-0.8271 -0.562 0.562 -0.8271 -265.1775 1275.2123)" fill="#F9F6C1" cx="63.5" cy="678.4" rx="0.7" ry="0.8"/>
		
			<ellipse transform="matrix(-0.8269 -0.5623 0.5623 -0.8269 -310.5285 1264.8885)" fill="#F9F6C1" cx="39.4" cy="680.2" rx="1.6" ry="1.7"/>
		
			<ellipse transform="matrix(-0.8273 -0.5618 0.5618 -0.8273 -276.1057 1331.9653)" fill="#F9F6C1" cx="66.7" cy="708.4" rx="0.7" ry="0.8"/>
		
			<ellipse transform="matrix(-0.8267 -0.5626 0.5626 -0.8267 -249.5602 1311.33)" fill="#F9F6C1" cx="77.2" cy="694.1" rx="0.7" ry="0.8"/>
		
			<ellipse transform="matrix(0.5809 0.814 -0.814 0.5809 820.3849 -617.2495)" fill="#F9F6C1" cx="1009.6" cy="488.1" rx="0.7" ry="0.8"/>
		
			<ellipse transform="matrix(0.5802 0.8145 -0.8145 0.5802 813.2145 -520.1619)" fill="#F9F6C1" cx="911.2" cy="528.8" rx="1.6" ry="1.7"/>
		
			<ellipse transform="matrix(0.581 0.8139 -0.8139 0.581 784.524 -516.8718)" fill="#F9F6C1" cx="894.3" cy="503.5" rx="0.7" ry="0.8"/>
		
			<ellipse transform="matrix(0.5805 0.8142 -0.8142 0.5805 808.0733 -541.6022)" fill="#F9F6C1" cx="929.7" cy="513.5" rx="0.7" ry="0.8"/>
		<path fill="#F9F6C1" d="M880.2,493c-0.3,0.2-0.8,0.2-1-0.1c-0.2-0.3-0.1-0.8,0.2-1c0.3-0.2,0.8-0.2,1,0.1
			C880.7,492.3,880.6,492.7,880.2,493z"/>
		
			<ellipse transform="matrix(0.5805 0.8143 -0.8143 0.5805 821.4437 -496.7392)" fill="#F9F6C1" cx="892.8" cy="548.8" rx="0.7" ry="0.8"/>
		
			<ellipse transform="matrix(0.58 0.8146 -0.8146 0.58 803.8704 -480.6514)" fill="#F9F6C1" cx="868.1" cy="539.2" rx="0.7" ry="0.8"/>
		<path fill="#F9F6C1" d="M966.6,483.3c-0.3,0.2-0.8,0.2-1-0.1c-0.2-0.3-0.1-0.8,0.2-1c0.3-0.2,0.8-0.2,1,0.1
			C967,482.6,966.9,483.1,966.6,483.3z"/>
		
			<ellipse transform="matrix(0.5794 0.815 -0.815 0.5794 795.8361 -555.0555)" fill="#F9F6C1" cx="935.7" cy="493.6" rx="0.7" ry="0.8"/>
		
			<ellipse transform="matrix(0.5807 0.8141 -0.8141 0.5807 788.2223 -543.1996)" fill="#F9F6C1" cx="921.4" cy="493.6" rx="0.7" ry="0.8"/>
		
			<ellipse transform="matrix(0.9461 -0.324 0.324 0.9461 -116.381 305.3554)" fill="#F9F6C1" cx="858.8" cy="502.2" rx="0.7" ry="0.8"/>
		
			<ellipse transform="matrix(-0.8269 -0.5623 0.5623 -0.8269 1330.561 1628.2957)" fill="#F9F6C1" cx="915.9" cy="609.4" rx="0.7" ry="0.8"/>
		
			<ellipse transform="matrix(-0.8269 -0.5623 0.5623 -0.8269 1293.3055 1425.9159)" fill="#F9F6C1" cx="866.1" cy="513.9" rx="0.7" ry="0.8"/>
		
			<ellipse transform="matrix(-0.8272 -0.5619 0.5619 -0.8272 1303.0253 1468.2369)" fill="#F9F6C1" cx="877.3" cy="533.8" rx="0.7" ry="0.8"/>
		<path fill="#F9F6C1" d="M887.1,519c0.2-0.4,0.7-0.5,1-0.2c0.3,0.2,0.4,0.7,0.2,1c-0.2,0.4-0.7,0.5-1,0.2
			C887,519.8,886.9,519.4,887.1,519z"/>
		
			<ellipse transform="matrix(0.9093 -0.4162 0.4162 0.9093 -85.8495 411.3815)" fill="#F9F6C1" cx="900.8" cy="402.6" rx="0.7" ry="0.8"/>
		
			<ellipse transform="matrix(0.909 -0.4168 0.4168 0.909 -134.8846 419.8215)" fill="#F9F6C1" cx="894.1" cy="518.8" rx="0.7" ry="0.8"/>
		
			<ellipse transform="matrix(0.9093 -0.4161 0.4161 0.9093 -119.6239 422.9485)" fill="#F9F6C1" cx="910.6" cy="485.9" rx="0.7" ry="0.8"/>
		
			<ellipse transform="matrix(0.9089 -0.4171 0.4171 0.9089 -141.2015 415.5627)" fill="#F9F6C1" cx="880.4" cy="530.9" rx="0.7" ry="0.8"/>
		
			<ellipse transform="matrix(0.9094 -0.4159 0.4159 0.9094 -134.9415 438.1266)" fill="#F9F6C1" cx="938.3" cy="528.8" rx="0.7" ry="0.8"/>
		
			<ellipse transform="matrix(0.9094 -0.4159 0.4159 0.9094 -145.5677 434.3008)" fill="#F9F6C1" cx="924.2" cy="551.3" rx="0.7" ry="0.8"/>
		<path fill="#F9F6C1" d="M892.8,475.9c0.2,0.4,0,0.8-0.3,1c-0.4,0.2-0.8,0-1-0.4s0-0.8,0.3-1C892.2,475.4,892.6,475.6,892.8,475.9z
			"/>
		
			<ellipse transform="matrix(0.9093 -0.4161 0.4161 0.9093 -123.3437 414.5708)" fill="#F9F6C1" cx="889.5" cy="490.3" rx="0.7" ry="0.8"/>
		
			<ellipse transform="matrix(-0.1391 -0.9903 0.9903 -0.1391 461.2864 1507.8179)" fill="#F9F6C1" cx="886" cy="553.4" rx="0.7" ry="0.8"/>
		
			<ellipse transform="matrix(0.4157 0.9095 -0.9095 0.4157 1044.6101 -462.5565)" fill="#F9F6C1" cx="882.3" cy="581.7" rx="1.3" ry="1.2"/>
		
			<ellipse transform="matrix(-0.7092 0.705 -0.705 -0.7092 1994.7788 227.7778)" fill="#F9F6C1" cx="950.4" cy="525.3" rx="0.7" ry="0.8"/>
		<path fill="#F9F6C1" d="M958.4,535.5c-0.3-0.3-0.3-0.8,0-1c0.3-0.3,0.7-0.3,1,0c0.3,0.3,0.3,0.8,0,1
			C959.2,535.9,958.7,535.8,958.4,535.5z"/>
		
			<ellipse transform="matrix(-0.7082 0.706 -0.706 -0.7082 1901.3871 291.4551)" fill="#F9F6C1" cx="890.5" cy="538.7" rx="0.7" ry="0.8"/>
		
			<ellipse transform="matrix(-0.7082 0.706 -0.706 -0.7082 1954.624 274.6219)" fill="#F9F6C1" cx="920.6" cy="541.2" rx="0.7" ry="0.8"/>
		
			<ellipse transform="matrix(-0.7085 0.7057 -0.7057 -0.7085 1924.9293 261.4635)" fill="#F9F6C1" cx="908.5" cy="528.3" rx="0.7" ry="0.8"/>
		
			<ellipse transform="matrix(0.9933 -0.1152 0.1152 0.9933 -43.4858 72.1444)" fill="#F9F6C1" cx="602.4" cy="412.3" rx="0.7" ry="0.8"/>
		
			<ellipse transform="matrix(0.1728 -0.985 0.985 0.1728 71.2708 889.9044)" fill="#F9F6C1" cx="565.5" cy="402.5" rx="0.7" ry="0.8"/>
		
			<ellipse transform="matrix(0.1155 0.9933 -0.9933 0.1155 914.7517 -170.6246)" fill="#F9F6C1" cx="553.2" cy="428.3" rx="1.3" ry="1.2"/>
		
			<ellipse transform="matrix(-0.8915 0.4529 -0.4529 -0.8915 1371.994 506.6734)" fill="#F9F6C1" cx="625.3" cy="417.6" rx="1.6" ry="1.7"/>
		
			<ellipse transform="matrix(-0.8916 0.4529 -0.4529 -0.8916 1396.0023 480.6945)" fill="#F9F6C1" cx="640.5" cy="407.5" rx="0.7" ry="0.8"/>
		
			<ellipse transform="matrix(-0.8914 0.4532 -0.4532 -0.8914 1253.7314 523.4166)" fill="#F9F6C1" cx="564.2" cy="411.9" rx="1.6" ry="1.7"/>
		
			<ellipse transform="matrix(-0.8916 0.4529 -0.4529 -0.8916 1277.7083 497.6391)" fill="#F9F6C1" cx="579.3" cy="401.8" rx="0.7" ry="0.8"/>
		
			<ellipse transform="matrix(-0.8915 0.4529 -0.4529 -0.8915 1320.6814 486.8994)" fill="#F9F6C1" cx="602" cy="401.6" rx="0.7" ry="0.8"/>
	</g>
	<g opacity="0.4">
		<ellipse fill="#F9F6C1" cx="980.2" cy="343.8" rx="1.3" ry="1.4"/>
		
			<ellipse transform="matrix(1 4.061133e-03 -4.061133e-03 1 1.5902 -3.4438)" fill="#F9F6C1" cx="848.8" cy="389.8" rx="1.3" ry="1.4"/>
		<ellipse fill="#F9F6C1" cx="1043.4" cy="188.3" rx="1.3" ry="1.4"/>
		<ellipse fill="#F9F6C1" cx="994.8" cy="120.3" rx="1.3" ry="1.4"/>
		
			<ellipse transform="matrix(1 4.061133e-03 -4.061133e-03 1 0.2323 -3.7075)" fill="#F9F6C1" cx="913" cy="55.3" rx="1.3" ry="1.4"/>
		<ellipse fill="#F9F6C1" cx="929.4" cy="320.3" rx="1.3" ry="1.4"/>
		<ellipse fill="#F9F6C1" cx="655" cy="35.5" rx="1.3" ry="1.4"/>
		
			<ellipse transform="matrix(1 4.063500e-03 -4.063500e-03 1 0.2541 -2.5006)" fill="#F9F6C1" cx="615.5" cy="61.3" rx="1.3" ry="1.4"/>
		
			<ellipse transform="matrix(1 4.059619e-03 -4.059619e-03 1 1.464 -4.023)" fill="#F9F6C1" cx="991.7" cy="358.6" rx="1.3" ry="1.4"/>
		
			<ellipse transform="matrix(1 4.059619e-03 -4.059619e-03 1 1.5972 -3.9227)" fill="#F9F6C1" cx="967.1" cy="391.5" rx="1.3" ry="1.4"/>
		
			<ellipse transform="matrix(1 4.063510e-03 -4.063510e-03 1 0.8698 -3.247)" fill="#F9F6C1" cx="799.5" cy="212.4" rx="1.3" ry="1.4"/>
		<ellipse fill="#F9F6C1" cx="968.7" cy="278.1" rx="1.3" ry="1.4"/>
		
			<ellipse transform="matrix(1 4.065277e-03 -4.065277e-03 1 0.1463 -1.9543)" fill="#F9F6C1" cx="480.8" cy="35" rx="1.3" ry="1.4"/>
		
			<ellipse transform="matrix(0.9399 0.3415 -0.3415 0.9399 67.5653 -322.0391)" fill="#F9F6C1" cx="948.5" cy="30.9" rx="1.3" ry="1.4"/>
		
			<ellipse transform="matrix(0.94 0.3412 -0.3412 0.94 64.0338 -319.6057)" fill="#F9F6C1" cx="940.5" cy="22.2" rx="1.3" ry="1.4"/>
		<ellipse transform="matrix(0.94 0.3413 -0.3413 0.94 49.5413 -275.8584)" fill="#F9F6C1" cx="808.8" cy="2.9" rx="1.3" ry="1.4"/>
		
			<ellipse transform="matrix(0.2466 -0.9691 0.9691 0.2466 658.4237 1000.037)" fill="#F9F6C1" cx="972.4" cy="76.6" rx="1.3" ry="1.4"/>
		
			<ellipse transform="matrix(0.2467 -0.9691 0.9691 0.2467 589.6876 1108.9889)" fill="#F9F6C1" cx="1008.2" cy="175.2" rx="1.3" ry="1.4"/>
		
			<ellipse transform="matrix(0.2465 -0.9691 0.9691 0.2465 672.7465 1036.0343)" fill="#F9F6C1" cx="1002.7" cy="85.4" rx="1.3" ry="1.4"/>
		
			<ellipse transform="matrix(0.246 -0.9693 0.9693 0.246 732.0417 1046.4949)" fill="#F9F6C1" cx="1038.6" cy="52.7" rx="1.3" ry="1.4"/>
		
			<ellipse transform="matrix(0.2463 -0.9692 0.9692 0.2463 717.1948 1045.4498)" fill="#F9F6C1" cx="1030.8" cy="61.6" rx="1.3" ry="1.4"/>
		
			<ellipse transform="matrix(0.2465 -0.9691 0.9691 0.2465 583.4799 1139.579)" fill="#F9F6C1" cx="1024.6" cy="194.5" rx="1.3" ry="1.4"/>
		
			<ellipse transform="matrix(0.2469 -0.969 0.969 0.2469 564.5953 1117.9304)" fill="#F9F6C1" cx="1001.6" cy="195.7" rx="1.3" ry="1.4"/>
		
			<ellipse transform="matrix(-0.9901 -0.1401 0.1401 -0.9901 1908.4883 575.9434)" fill="#F9F6C1" cx="974.5" cy="220.8" rx="1.3" ry="1.4"/>
		<ellipse fill="#F9F6C1" cx="22.2" cy="3.3" rx="1.3" ry="1.4"/>
		<ellipse fill="#F9F6C1" cx="357.6" cy="10.4" rx="1.3" ry="1.4"/>
		<ellipse fill="#F9F6C1" cx="7.5" cy="23.9" rx="1.3" ry="1.4"/>
		<ellipse fill="#F9F6C1" cx="914.5" cy="261.7" rx="1.3" ry="1.4"/>
		
			<ellipse transform="matrix(1 4.061166e-03 -4.061166e-03 1 1.3432 -3.3709)" fill="#F9F6C1" cx="830.7" cy="329.1" rx="1.3" ry="1.4"/>
		
			<ellipse transform="matrix(0.2889 -0.9574 0.9574 0.2889 428.3607 951.4027)" fill="#F9F6C1" cx="854.6" cy="187.4" rx="1.3" ry="1.4"/>
		
			<ellipse transform="matrix(0.2889 -0.9574 0.9574 0.2889 473.6471 1071.5099)" fill="#F9F6C1" cx="958.1" cy="216.9" rx="1.3" ry="1.4"/>
		
			<ellipse transform="matrix(0.2891 -0.9573 0.9573 0.2891 357.988 554.509)" fill="#F9F6C1" cx="552.3" cy="36.2" rx="1.3" ry="1.4"/>
		
			<ellipse transform="matrix(0.2889 -0.9574 0.9574 0.2889 360.0041 1243.7764)" fill="#F9F6C1" cx="1017.2" cy="379.6" rx="1.3" ry="1.4"/>
		
			<ellipse transform="matrix(1 4.059619e-03 -4.059619e-03 1 0.569 -3.3512)" fill="#F9F6C1" cx="825.8" cy="138.5" rx="1.3" ry="1.4"/>
		<ellipse fill="#F9F6C1" cx="788.4" cy="151.9" rx="1.3" ry="1.4"/>
		
			<ellipse transform="matrix(0.4316 0.9021 -0.9021 0.4316 833.6178 -567.9944)" fill="#F9F6C1" cx="867.5" cy="377.5" rx="1.3" ry="1.4"/>
		
			<ellipse transform="matrix(0.4319 0.9019 -0.9019 0.4319 837.7822 -592.1246)" fill="#F9F6C1" cx="888.9" cy="369" rx="1.3" ry="1.4"/>
		
			<ellipse transform="matrix(0.4319 0.9019 -0.9019 0.4319 801.5729 -615.6439)" fill="#F9F6C1" cx="889.5" cy="328.5" rx="1.3" ry="1.4"/>
		
			<ellipse transform="matrix(0.4319 0.9019 -0.9019 0.4319 796.5944 -582.4009)" fill="#F9F6C1" cx="860.6" cy="341.2" rx="1.3" ry="1.4"/>
		
			<ellipse transform="matrix(0.4319 0.9019 -0.9019 0.4319 668.4991 -670.4885)" fill="#F9F6C1" cx="866.5" cy="195.4" rx="1.3" ry="1.4"/>
		
			<ellipse transform="matrix(0.4319 0.9019 -0.9019 0.4319 663.5195 -637.2473)" fill="#F9F6C1" cx="837.6" cy="208.1" rx="1.3" ry="1.4"/>
		
			<ellipse transform="matrix(0.4316 0.9021 -0.9021 0.4316 149.9072 -228.7009)" fill="#F9F6C1" cx="256.4" cy="4.6" rx="1.3" ry="1.4"/>
		
			<ellipse transform="matrix(-0.9391 0.3438 -0.3438 -0.9391 1708.429 310.1448)" fill="#F9F6C1" cx="826.7" cy="306.5" rx="1.3" ry="1.4"/>
		
			<ellipse transform="matrix(-0.9391 0.3438 -0.3438 -0.9391 1728.5345 350.802)" fill="#F9F6C1" cx="833.2" cy="328.6" rx="1.3" ry="1.4"/>
		
			<ellipse transform="matrix(-0.9388 0.3445 -0.3445 -0.9388 1808.0909 344.8861)" fill="#F9F6C1" cx="873.4" cy="333.1" rx="1.3" ry="1.4"/>
		<path fill="#F9F6C1" d="M862.4,303.5c-0.3-0.7,0.1-1.5,0.7-1.7c0.7-0.2,1.4,0.1,1.7,0.8c0.3,0.7-0.1,1.5-0.7,1.7
			C863.4,304.6,862.6,304.2,862.4,303.5z"/>
		
			<ellipse transform="matrix(-0.9389 0.3441 -0.3441 -0.9389 745.2903 -126.5256)" fill="#F9F6C1" cx="383.9" cy="2.9" rx="1.3" ry="1.4"/>
		
			<ellipse transform="matrix(-0.9391 0.3438 -0.3438 -0.9391 1326.5128 -157.6829)" fill="#F9F6C1" cx="677.2" cy="38.7" rx="1.3" ry="1.4"/>
		
			<ellipse transform="matrix(-0.9391 0.3438 -0.3438 -0.9391 1346.6184 -117.0245)" fill="#F9F6C1" cx="683.7" cy="60.9" rx="1.3" ry="1.4"/>
		
			<ellipse transform="matrix(-0.9388 0.3445 -0.3445 -0.9388 1426.0271 -122.7687)" fill="#F9F6C1" cx="723.9" cy="65.3" rx="1.3" ry="1.4"/>
		
			<ellipse transform="matrix(-0.9391 0.3438 -0.3438 -0.9391 798.624 -133.0937)" fill="#F9F6C1" cx="411.1" cy="4.2" rx="1.3" ry="1.4"/>
		
			<ellipse transform="matrix(-0.9391 0.3438 -0.3438 -0.9391 818.7296 -92.4354)" fill="#F9F6C1" cx="417.6" cy="26.4" rx="1.3" ry="1.4"/>
		
			<ellipse transform="matrix(-0.9389 0.3443 -0.3443 -0.9389 898.2073 -97.899)" fill="#F9F6C1" cx="457.8" cy="30.8" rx="1.3" ry="1.4"/>
		<path fill="#F9F6C1" d="M446.8,1.3c-0.3-0.7,0.1-1.5,0.7-1.7c0.7-0.2,1.4,0.1,1.7,0.8c0.3,0.7-0.1,1.5-0.7,1.7
			C447.8,2.4,447,2,446.8,1.3z"/>
		
			<ellipse transform="matrix(-0.9391 0.3438 -0.3438 -0.9391 1111.5585 -165.5707)" fill="#F9F6C1" cx="570.5" cy="15.7" rx="1.3" ry="1.4"/>
		
			<ellipse transform="matrix(-0.9391 0.3438 -0.3438 -0.9391 1131.6635 -124.9136)" fill="#F9F6C1" cx="576.9" cy="37.9" rx="1.3" ry="1.4"/>
		<path fill="#F9F6C1" d="M606.1,12.8c-0.3-0.7,0.1-1.5,0.7-1.7c0.7-0.2,1.4,0.1,1.7,0.8c0.3,0.7-0.1,1.5-0.7,1.7
			C607.1,13.9,606.4,13.5,606.1,12.8z"/>
		<ellipse fill="#F9F6C1" cx="5.8" cy="297.3" rx="1.4" ry="1.3"/>
		<ellipse fill="#F9F6C1" cx="65.4" cy="380.7" rx="1.4" ry="1.3"/>
		<ellipse fill="#F9F6C1" cx="589" cy="300.7" rx="1.4" ry="1.3"/>
		<ellipse fill="#F9F6C1" cx="739.7" cy="229.3" rx="1.4" ry="1.3"/>
		<ellipse fill="#F9F6C1" cx="752.6" cy="371.2" rx="1.4" ry="1.3"/>
		<ellipse fill="#F9F6C1" cx="60.6" cy="26.1" rx="1.3" ry="1.4"/>
		<ellipse fill="#F9F6C1" cx="621.3" cy="213.4" rx="1.4" ry="1.3"/>
		<ellipse fill="#F9F6C1" cx="18.6" cy="249.6" rx="1.4" ry="1.3"/>
		<ellipse fill="#F9F6C1" cx="131.6" cy="22.5" rx="1.3" ry="1.4"/>
		<ellipse fill="#F9F6C1" cx="755.8" cy="392.4" rx="2.3" ry="2.1"/>
		<ellipse fill="#F9F6C1" cx="14.5" cy="94.2" rx="1.3" ry="1.4"/>
		<ellipse fill="#F9F6C1" cx="212.4" cy="55.9" rx="1.3" ry="1.4"/>
		<ellipse fill="#F9F6C1" cx="578" cy="148.6" rx="1.4" ry="1.3"/>
		<ellipse fill="#F9F6C1" cx="205.6" cy="33.8" rx="1.3" ry="1.4"/>
		<ellipse fill="#F9F6C1" cx="265.6" cy="19.8" rx="1.3" ry="1.4"/>
		<ellipse fill="#F9F6C1" cx="289" cy="394.1" rx="1.4" ry="1.3"/>
		<ellipse fill="#F9F6C1" cx="522.8" cy="132.9" rx="1.4" ry="1.3"/>
		
			<ellipse transform="matrix(1 4.061133e-03 -4.061133e-03 1 0.3304 -0.6928)" fill="#F9F6C1" cx="170.8" cy="81" rx="1.3" ry="1.4"/>
		<ellipse fill="#F9F6C1" cx="353.5" cy="312" rx="1.4" ry="1.3"/>
		<ellipse fill="#F9F6C1" cx="477.9" cy="253.4" rx="1.4" ry="1.3"/>
		<ellipse fill="#F9F6C1" cx="450.9" cy="123.1" rx="1.4" ry="1.3"/>
		<ellipse fill="#F9F6C1" cx="473" cy="116.2" rx="1.4" ry="1.3"/>
		<ellipse fill="#F9F6C1" cx="160.3" cy="75.5" rx="1.3" ry="1.4"/>
		<ellipse fill="#F9F6C1" cx="88.6" cy="329.8" rx="1.4" ry="1.3"/>
		<ellipse fill="#F9F6C1" cx="701.8" cy="220.9" rx="1.4" ry="1.3"/>
		<ellipse fill="#F9F6C1" cx="419.8" cy="376.5" rx="1.4" ry="1.3"/>
		<ellipse fill="#F9F6C1" cx="414.8" cy="239.3" rx="1.4" ry="1.3"/>
		<ellipse fill="#F9F6C1" cx="542.7" cy="310.1" rx="1.4" ry="1.3"/>
		<ellipse fill="#F9F6C1" cx="613" cy="192.1" rx="1.4" ry="1.3"/>
		<ellipse fill="#F9F6C1" cx="622" cy="339.9" rx="1.4" ry="1.3"/>
		<ellipse fill="#F9F6C1" cx="709.9" cy="303.5" rx="1.4" ry="1.3"/>
		<ellipse fill="#F9F6C1" cx="262.6" cy="238.1" rx="1.4" ry="1.3"/>
		<ellipse fill="#F9F6C1" cx="50.6" cy="392.3" rx="1.4" ry="1.3"/>
		<ellipse fill="#F9F6C1" cx="544.4" cy="271.3" rx="1.4" ry="1.3"/>
		<ellipse fill="#F9F6C1" cx="195.8" cy="199.3" rx="1.4" ry="1.3"/>
		<ellipse fill="#F9F6C1" cx="93.2" cy="19.4" rx="1.3" ry="1.4"/>
		<ellipse fill="#F9F6C1" cx="53.6" cy="339.7" rx="1.4" ry="1.3"/>
		
			<ellipse transform="matrix(1 4.019693e-03 -4.019693e-03 1 0.729 -0.3409)" fill="#F9F6C1" cx="85.2" cy="181.2" rx="1.3" ry="1.4"/>
		<ellipse fill="#F9F6C1" cx="643.5" cy="361.1" rx="1.4" ry="1.3"/>
		<ellipse fill="#F9F6C1" cx="557.1" cy="371.6" rx="1.4" ry="1.3"/>
		<ellipse fill="#F9F6C1" cx="7.2" cy="261.1" rx="1.4" ry="1.3"/>
		
			<ellipse transform="matrix(-0.3365 0.9417 -0.9417 -0.3365 870.0741 -89.5764)" fill="#F9F6C1" cx="466.6" cy="261.7" rx="1.3" ry="1.4"/>
		<path fill="#F9F6C1" d="M419.5,229.5c-0.7-0.3-1.1-1-0.9-1.7c0.2-0.7,1-1,1.7-0.7c0.7,0.3,1.1,1,0.9,1.7
			C421,229.4,420.2,229.8,419.5,229.5z"/>
		
			<ellipse transform="matrix(-0.3361 0.9418 -0.9418 -0.3361 832.3511 107.9738)" fill="#F9F6C1" cx="378.1" cy="347.4" rx="1.3" ry="1.4"/>
		
			<ellipse transform="matrix(-0.3361 0.9418 -0.9418 -0.3361 836.2988 89.065)" fill="#F9F6C1" cx="386.8" cy="339.3" rx="1.3" ry="1.4"/>
		
			<ellipse transform="matrix(-0.3364 0.9417 -0.9417 -0.3364 737.1517 -104.441)" fill="#F9F6C1" cx="405.4" cy="207.5" rx="1.3" ry="1.4"/>
		
			<ellipse transform="matrix(-0.3361 0.9418 -0.9418 -0.3361 768.7881 -124.9627)" fill="#F9F6C1" cx="428.4" cy="208.5" rx="1.3" ry="1.4"/>
		<ellipse fill="#F9F6C1" cx="550.2" cy="104.5" rx="1.4" ry="1.3"/>
		<ellipse fill="#F9F6C1" cx="518.7" cy="103.5" rx="1.4" ry="1.3"/>
		<ellipse fill="#F9F6C1" cx="491.9" cy="144.1" rx="1.4" ry="1.3"/>
		<ellipse fill="#F9F6C1" cx="497.3" cy="133.5" rx="1.4" ry="1.3"/>
		
			<ellipse transform="matrix(1 4.064927e-03 -4.064927e-03 1 0.2858 -0.3281)" fill="#F9F6C1" cx="80.8" cy="70.1" rx="1.3" ry="1.4"/>
		<ellipse fill="#F9F6C1" cx="715.1" cy="97.9" rx="1.4" ry="1.3"/>
		<ellipse fill="#F9F6C1" cx="719" cy="168.9" rx="1.4" ry="1.3"/>
		<ellipse fill="#F9F6C1" cx="660.8" cy="208.4" rx="1.4" ry="1.3"/>
		<ellipse fill="#F9F6C1" cx="666.2" cy="197.9" rx="1.4" ry="1.3"/>
		<ellipse fill="#F9F6C1" cx="540.5" cy="326.9" rx="1.4" ry="1.3"/>
		<ellipse fill="#F9F6C1" cx="485.3" cy="311.2" rx="1.4" ry="1.3"/>
		<ellipse fill="#F9F6C1" cx="512.9" cy="396.8" rx="1.4" ry="1.3"/>
		<ellipse fill="#F9F6C1" cx="464.5" cy="296.5" rx="1.4" ry="1.3"/>
		<ellipse fill="#F9F6C1" cx="486.6" cy="289.7" rx="1.4" ry="1.3"/>
		
			<ellipse transform="matrix(0.9705 0.2411 -0.2411 0.9705 94.067 -52.791)" fill="#F9F6C1" cx="262.8" cy="358" rx="1.3" ry="1.4"/>
		
			<ellipse transform="matrix(0.9705 0.2412 -0.2412 0.9705 99.4067 -69.251)" fill="#F9F6C1" cx="332.6" cy="371.4" rx="1.3" ry="1.4"/>
		<ellipse fill="#F9F6C1" cx="524.5" cy="205.5" rx="1.4" ry="1.3"/>
		<ellipse fill="#F9F6C1" cx="528.4" cy="276.5" rx="1.4" ry="1.3"/>
		<ellipse fill="#F9F6C1" cx="469.3" cy="189.8" rx="1.4" ry="1.3"/>
		<ellipse fill="#F9F6C1" cx="496.9" cy="275.4" rx="1.4" ry="1.3"/>
		<ellipse fill="#F9F6C1" cx="475.6" cy="305.5" rx="1.4" ry="1.3"/>
		<ellipse fill="#F9F6C1" cx="448.5" cy="175.1" rx="1.4" ry="1.3"/>
		<ellipse fill="#F9F6C1" cx="470.6" cy="168.3" rx="1.4" ry="1.3"/>
		
			<ellipse transform="matrix(-0.99 -0.1407 0.1407 -0.99 455.6984 340.4457)" fill="#F9F6C1" cx="239.9" cy="154.1" rx="1.3" ry="1.4"/>
		
			<ellipse transform="matrix(-0.9899 -0.1416 0.1416 -0.9899 49.4455 247.4249)" fill="#F9F6C1" cx="33.5" cy="122" rx="1.3" ry="1.4"/>
		
			<ellipse transform="matrix(-0.99 -0.1408 0.1408 -0.99 4.545104e-02 169.8118)" fill="#F9F6C1" cx="6" cy="84.9" rx="1.3" ry="1.4"/>
		
			<ellipse transform="matrix(-0.99 -0.1408 0.1408 -0.99 319.5695 295.0923)" fill="#F9F6C1" cx="170.2" cy="136.2" rx="1.3" ry="1.4"/>
		
			<ellipse transform="matrix(0.1346 -0.9909 0.9909 0.1346 -207.9661 510.625)" fill="#F9F6C1" cx="188.4" cy="374.4" rx="1.3" ry="1.4"/>
		
			<ellipse transform="matrix(-0.99 -0.1407 0.1407 -0.99 270.0802 240.7566)" fill="#F9F6C1" cx="143.6" cy="110.8" rx="1.3" ry="1.4"/>
		
			<ellipse transform="matrix(-0.99 -0.1409 0.1409 -0.99 37.4067 135.6099)" fill="#F9F6C1" cx="23.5" cy="66.5" rx="1.3" ry="1.4"/>
		
			<ellipse transform="matrix(-0.99 -0.1408 0.1408 -0.99 41.4605 181.4932)" fill="#F9F6C1" cx="27.1" cy="89.3" rx="1.3" ry="1.4"/>
		<ellipse fill="#F9F6C1" cx="766.8" cy="274.4" rx="1.4" ry="1.3"/>
		<ellipse fill="#F9F6C1" cx="770.7" cy="345.4" rx="1.4" ry="1.3"/>
		<ellipse fill="#F9F6C1" cx="739.2" cy="344.3" rx="1.4" ry="1.3"/>
		<ellipse fill="#F9F6C1" cx="712.5" cy="384.9" rx="1.4" ry="1.3"/>
		<ellipse fill="#F9F6C1" cx="717.9" cy="374.4" rx="1.4" ry="1.3"/>
		<ellipse fill="#F9F6C1" cx="712.9" cy="237.2" rx="1.4" ry="1.3"/>
		<ellipse fill="#F9F6C1" cx="512" cy="345.4" rx="1.4" ry="1.3"/>
		<ellipse fill="#F9F6C1" cx="297.8" cy="246.8" rx="1.4" ry="1.3"/>
		<ellipse fill="#F9F6C1" cx="584.1" cy="319.6" rx="1.4" ry="1.3"/>
		<ellipse fill="#F9F6C1" cx="147.1" cy="314.6" rx="1.4" ry="1.3"/>
		<ellipse fill="#F9F6C1" cx="633.3" cy="302.1" rx="1.4" ry="1.3"/>
		<ellipse fill="#F9F6C1" cx="656.6" cy="356.1" rx="1.4" ry="1.3"/>
		<ellipse fill="#F9F6C1" cx="79.3" cy="231.2" rx="1.4" ry="1.3"/>
		
			<ellipse transform="matrix(0.9588 0.284 -0.284 0.9588 81.3232 -52.3358)" fill="#F9F6C1" cx="221.2" cy="254.3" rx="1.3" ry="1.4"/>
		
			<ellipse transform="matrix(0.959 0.2833 -0.2833 0.959 109.2659 -39.7696)" fill="#F9F6C1" cx="192.2" cy="357.9" rx="1.3" ry="1.4"/>
		
			<ellipse transform="matrix(0.959 0.2833 -0.2833 0.959 132.2417 -170.9159)" fill="#F9F6C1" cx="657.1" cy="371.8" rx="1.3" ry="1.4"/>
		
			<ellipse transform="matrix(0.9588 0.2839 -0.2839 0.9588 98.1017 -166.0858)" fill="#F9F6C1" cx="622" cy="255.4" rx="1.3" ry="1.4"/>
		<ellipse fill="#F9F6C1" cx="313.5" cy="95.2" rx="1.4" ry="1.3"/>
		<ellipse fill="#F9F6C1" cx="711.3" cy="347.6" rx="1.4" ry="1.3"/>
		<ellipse fill="#F9F6C1" cx="246.9" cy="223.7" rx="1.4" ry="1.3"/>
		<ellipse fill="#F9F6C1" cx="269.9" cy="225.2" rx="1.4" ry="1.3"/>
		<ellipse fill="#F9F6C1" cx="287.8" cy="188.9" rx="1.4" ry="1.3"/>
		<ellipse fill="#F9F6C1" cx="256.3" cy="187.9" rx="1.4" ry="1.3"/>
		<ellipse fill="#F9F6C1" cx="192.6" cy="212.5" rx="1.4" ry="1.3"/>
		<ellipse fill="#F9F6C1" cx="215.6" cy="214" rx="1.4" ry="1.3"/>
		<ellipse fill="#F9F6C1" cx="233.5" cy="177.7" rx="1.4" ry="1.3"/>
		<ellipse fill="#F9F6C1" cx="202" cy="176.7" rx="1.4" ry="1.3"/>
		<path fill="#F9F6C1" d="M29.9,268.8c-0.3-0.7-0.1-1.5,0.5-1.8c0.6-0.3,1.4,0,1.7,0.7c0.3,0.7,0.1,1.5-0.5,1.8
			C31,269.8,30.3,269.5,29.9,268.8z"/>
		
			<ellipse transform="matrix(-0.8992 0.4375 -0.4375 -0.8992 202.1317 532.6478)" fill="#F9F6C1" cx="39.7" cy="289.6" rx="1.3" ry="1.4"/>
		
			<ellipse transform="matrix(-0.8995 0.4368 -0.4368 -0.8995 279.0021 515.7744)" fill="#F9F6C1" cx="80.2" cy="290" rx="1.3" ry="1.4"/>
		
			<ellipse transform="matrix(-0.8995 0.4368 -0.4368 -0.8995 444.099 429.6263)" fill="#F9F6C1" cx="172.6" cy="265.9" rx="1.3" ry="1.4"/>
		
			<ellipse transform="matrix(-0.8992 0.4375 -0.4375 -0.8992 521.259 412.4029)" fill="#F9F6C1" cx="213.1" cy="266.2" rx="1.3" ry="1.4"/>
		
			<ellipse transform="matrix(-0.8994 0.4372 -0.4372 -0.8994 484.2624 363.3891)" fill="#F9F6C1" cx="200.3" cy="237.4" rx="1.3" ry="1.4"/>
		
			<ellipse transform="matrix(-0.8995 0.4368 -0.4368 -0.8995 850.5119 21.2095)" fill="#F9F6C1" cx="422.8" cy="108.4" rx="1.3" ry="1.4"/>
		
			<ellipse transform="matrix(-0.8996 0.4368 -0.4368 -0.8996 876.2606 58.0066)" fill="#F9F6C1" cx="431.5" cy="129.7" rx="1.3" ry="1.4"/>
		
			<ellipse transform="matrix(-0.8995 0.4368 -0.4368 -0.8995 953.306 40.9845)" fill="#F9F6C1" cx="471.9" cy="130.1" rx="1.3" ry="1.4"/>
		
			<ellipse transform="matrix(-0.8997 0.4365 -0.4365 -0.8997 916.4161 -7.9714)" fill="#F9F6C1" cx="459.1" cy="101.3" rx="1.3" ry="1.4"/>
		
			<ellipse transform="matrix(-0.3492 -0.9371 0.9371 -0.3492 -75.3586 401.7786)" fill="#F9F6C1" cx="101.8" cy="227.1" rx="1.3" ry="1.4"/>
		<path fill="#F9F6C1" d="M79.3,232.4c0.7-0.3,1.5,0.1,1.7,0.7c0.2,0.7-0.1,1.4-0.8,1.7c-0.7,0.3-1.5-0.1-1.7-0.7
			C78.2,233.4,78.6,232.7,79.3,232.4z"/>
		
			<ellipse transform="matrix(-0.3494 -0.937 0.937 -0.3494 -104.9385 454.8864)" fill="#F9F6C1" cx="105.5" cy="263.9" rx="1.3" ry="1.4"/>
		
			<ellipse transform="matrix(-0.3499 -0.9368 0.9368 -0.3499 347.1626 486.7899)" fill="#F9F6C1" cx="342.5" cy="122.9" rx="1.3" ry="1.4"/>
		
			<ellipse transform="matrix(-0.3496 -0.9369 0.9369 -0.3496 396.7939 501.2965)" fill="#F9F6C1" cx="372.4" cy="112.9" rx="1.3" ry="1.4"/>
		
			<ellipse transform="matrix(-0.9391 0.3438 -0.3438 -0.9391 81.7241 286.3596)" fill="#F9F6C1" cx="15.5" cy="150.4" rx="1.3" ry="1.4"/>
		
			<ellipse transform="matrix(-0.9391 0.3438 -0.3438 -0.9391 101.8293 327.0179)" fill="#F9F6C1" cx="21.9" cy="172.5" rx="1.3" ry="1.4"/>
		
			<ellipse transform="matrix(-0.9388 0.3445 -0.3445 -0.9388 181.4857 321.7028)" fill="#F9F6C1" cx="62.2" cy="177" rx="1.3" ry="1.4"/>
		<path fill="#F9F6C1" d="M51.1,147.4c-0.3-0.7,0.1-1.5,0.7-1.7c0.7-0.2,1.4,0.1,1.7,0.8c0.3,0.7-0.1,1.5-0.7,1.7
			C52.1,148.5,51.4,148.2,51.1,147.4z"/>
		
			<ellipse transform="matrix(-0.9747 -0.2237 0.2237 -0.9747 897.1785 167.0688)" fill="#F9F6C1" cx="458.1" cy="32.7" rx="1" ry="1"/>
		
			<ellipse transform="matrix(-0.9745 -0.2245 0.2245 -0.9745 999.4832 112.7847)" fill="#F9F6C1" cx="506.2" cy="-0.4" rx="1" ry="1"/>
		
			<ellipse transform="matrix(-0.9748 -0.2232 0.2232 -0.9748 1700.4777 560.8808)" fill="#F9F6C1" cx="881.9" cy="184.3" rx="1" ry="1"/>
		
			<ellipse transform="matrix(-0.9747 -0.2233 0.2233 -0.9747 1927.1077 351.823)" fill="#F9F6C1" cx="983.4" cy="66.9" rx="1" ry="1"/>
		
			<ellipse transform="matrix(-0.9747 -0.2234 0.2234 -0.9747 1835.059 384.2847)" fill="#F9F6C1" cx="939.3" cy="88.3" rx="1" ry="1"/>
		
			<ellipse transform="matrix(-0.9747 -0.2235 0.2235 -0.9747 1975.3402 354.0486)" fill="#F9F6C1" cx="1007.7" cy="65.3" rx="1" ry="1"/>
		
			<ellipse transform="matrix(-0.9745 -0.2242 0.2242 -0.9745 1860.9847 252.1695)" fill="#F9F6C1" cx="944.8" cy="20.4" rx="1" ry="1"/>
		
			<ellipse transform="matrix(-0.9743 -0.2251 0.2251 -0.9743 1929.0352 236.1431)" fill="#F9F6C1" cx="978" cy="8.1" rx="1" ry="1"/>
		
			<ellipse transform="matrix(-0.9745 -0.2244 0.2244 -0.9745 1802.4078 507.2863)" fill="#F9F6C1" cx="930" cy="151.2" rx="1" ry="1"/>
		<path fill="#F9F6C1" d="M949.9,113.3c0.1-0.6,0.6-0.9,1.2-0.8c0.5,0.1,0.8,0.7,0.7,1.2c-0.1,0.6-0.6,0.9-1.2,0.8
			C950.1,114.4,949.8,113.9,949.9,113.3z"/>
		
			<ellipse transform="matrix(-0.9744 -0.2246 0.2246 -0.9744 1882.8782 415.948)" fill="#F9F6C1" cx="965.1" cy="100.9" rx="1" ry="1"/>
		
			<ellipse transform="matrix(-0.4932 0.8699 -0.8699 -0.4932 1555.2124 -832.2082)" fill="#F9F6C1" cx="1020" cy="36.9" rx="1" ry="1"/>
		
			<ellipse transform="matrix(0.2246 -0.9744 0.9744 0.2246 802.0603 1027.968)" fill="#F9F6C1" cx="1047" cy="10" rx="1.7" ry="1.6"/>
		<ellipse transform="matrix(0.9919 -0.1272 0.1272 0.9919 5.7242 118.329)" fill="#F9F6C1" cx="929.1" cy="14.4" rx="1" ry="1"/>
		<ellipse transform="matrix(0.9919 -0.1272 0.1272 0.9919 1.9295 128.0029)" fill="#F9F6C1" cx="1003.4" cy="48.9" rx="1" ry="1"/>
		<ellipse transform="matrix(0.9918 -0.1278 0.1278 0.9918 4.1738 128.35)" fill="#F9F6C1" cx="1002.3" cy="31.6" rx="1" ry="1"/>
		<ellipse transform="matrix(0.9918 -0.1279 0.1279 0.9918 5.2208 124.7386)" fill="#F9F6C1" cx="973.6" cy="21.7" rx="1" ry="1"/>
		
			<ellipse transform="matrix(-0.9745 -0.2242 0.2242 -0.9745 151.5182 422.4294)" fill="#F9F6C1" cx="99.7" cy="202.6" rx="1" ry="1"/>
		
			<ellipse transform="matrix(-0.9745 -0.2243 0.2243 -0.9745 378.2596 213.4074)" fill="#F9F6C1" cx="201.3" cy="85.2" rx="1" ry="1"/>
		
			<ellipse transform="matrix(-0.9745 -0.2245 0.2245 -0.9745 286.205 245.7382)" fill="#F9F6C1" cx="157.1" cy="106.6" rx="1" ry="1"/>
		
			<ellipse transform="matrix(-0.9745 -0.2244 0.2244 -0.9745 426.5119 215.5485)" fill="#F9F6C1" cx="225.5" cy="83.5" rx="1" ry="1"/>
		
			<ellipse transform="matrix(-0.9745 -0.2245 0.2245 -0.9745 312.3916 112.9069)" fill="#F9F6C1" cx="162.6" cy="38.7" rx="1" ry="1"/>
		
			<ellipse transform="matrix(-0.9743 -0.2251 0.2251 -0.9743 380.6041 96.1546)" fill="#F9F6C1" cx="195.8" cy="26.4" rx="1" ry="1"/>
		
			<ellipse transform="matrix(-0.9745 -0.2244 0.2244 -0.9745 253.8718 367.8108)" fill="#F9F6C1" cx="147.8" cy="169.5" rx="1" ry="1"/>
		
			<ellipse transform="matrix(-0.9743 -0.2254 0.2254 -0.9743 303.2906 298.2112)" fill="#F9F6C1" cx="168.7" cy="131.8" rx="1" ry="1"/>
		
			<ellipse transform="matrix(-0.9744 -0.2246 0.2246 -0.9744 334.3709 276.3358)" fill="#F9F6C1" cx="182.9" cy="119.1" rx="1" ry="1"/>
		
			<ellipse transform="matrix(-0.4937 0.8697 -0.8697 -0.4937 403.2273 -124.3966)" fill="#F9F6C1" cx="237.8" cy="55.2" rx="1" ry="1"/>
		
			<ellipse transform="matrix(0.2246 -0.9744 0.9744 0.2246 177.7789 279.9317)" fill="#F9F6C1" cx="264.8" cy="28.3" rx="1.7" ry="1.6"/>
		<ellipse transform="matrix(0.9919 -0.1273 0.1273 0.9919 -2.9579 18.9611)" fill="#F9F6C1" cx="146.9" cy="32.6" rx="1" ry="1"/>
		<ellipse transform="matrix(0.9918 -0.1276 0.1276 0.9918 -0.7709 18.7378)" fill="#F9F6C1" cx="145.9" cy="15.4" rx="1" ry="1"/>
		<path fill="#F9F6C1" d="M222.1,67c0.1,0.6-0.3,1.1-0.8,1.1c-0.5,0.1-1-0.3-1.1-0.9c-0.1-0.6,0.3-1.1,0.8-1.1
			C221.6,66.1,222.1,66.5,222.1,67z"/>
		<ellipse transform="matrix(0.9919 -0.1273 0.1273 0.9919 -4.5637 28.4303)" fill="#F9F6C1" cx="220.1" cy="49.9" rx="1" ry="1"/>
		<ellipse transform="matrix(0.9919 -0.1271 0.1271 0.9919 -3.5312 24.6576)" fill="#F9F6C1" cx="191.4" cy="40" rx="1" ry="1"/>
		<ellipse transform="matrix(0.9917 -0.1284 0.1284 0.9917 -6.5563 25.3954)" fill="#F9F6C1" cx="193.7" cy="63.5" rx="1" ry="1"/>
		
			<ellipse transform="matrix(-0.9748 -0.2232 0.2232 -0.9748 263.7784 240.8051)" fill="#F9F6C1" cx="145.5" cy="105.5" rx="1" ry="1"/>
		<ellipse transform="matrix(-0.9746 -0.224 0.224 -0.9746 398.3879 64.1547)" fill="#F9F6C1" cx="202.8" cy="9.5" rx="1" ry="1"/>
		
			<ellipse transform="matrix(-0.9745 -0.2244 0.2244 -0.9745 366.0167 186.3209)" fill="#F9F6C1" cx="193.6" cy="72.4" rx="1" ry="1"/>
		
			<ellipse transform="matrix(-0.9743 -0.2254 0.2254 -0.9743 415.5141 116.7896)" fill="#F9F6C1" cx="214.4" cy="34.7" rx="1" ry="1"/>
		<ellipse transform="matrix(-0.9744 -0.2246 0.2246 -0.9744 446.5305 94.8582)" fill="#F9F6C1" cx="228.7" cy="22" rx="1" ry="1"/>
		
			<ellipse transform="matrix(0.5807 0.8141 -0.8141 0.5807 93.8923 -183.8255)" fill="#F9F6C1" cx="225.4" cy="-0.8" rx="0.7" ry="0.8"/>
		
			<ellipse transform="matrix(-0.8266 -0.5628 0.5628 -0.8266 416.4583 149.2438)" fill="#F9F6C1" cx="231.2" cy="10.5" rx="0.7" ry="0.8"/>
		
			<ellipse transform="matrix(-0.8269 -0.5624 0.5624 -0.8269 371.379 138.9432)" fill="#F9F6C1" cx="207.1" cy="12.3" rx="1.6" ry="1.7"/>
		
			<ellipse transform="matrix(-0.827 -0.5623 0.5623 -0.827 396.2252 163.2643)" fill="#F9F6C1" cx="223.2" cy="20.7" rx="0.7" ry="0.8"/>
		
			<ellipse transform="matrix(0.581 0.8139 -0.8139 0.581 491.039 -713.4485)" fill="#F9F6C1" cx="938.4" cy="120.2" rx="0.7" ry="0.8"/>
		
			<ellipse transform="matrix(0.5807 0.8141 -0.8141 0.5807 478.476 -637.8745)" fill="#F9F6C1" cx="858.5" cy="145.6" rx="0.7" ry="0.8"/>
		
			<ellipse transform="matrix(0.5805 0.8143 -0.8143 0.5805 377.5855 -608.4141)" fill="#F9F6C1" cx="779.3" cy="62.2" rx="0.7" ry="0.8"/>
		
			<ellipse transform="matrix(0.58 0.8146 -0.8146 0.58 474.2341 -577.1561)" fill="#F9F6C1" cx="796.9" cy="171.3" rx="0.7" ry="0.8"/>
		
			<ellipse transform="matrix(0.581 0.8139 -0.8139 0.581 540.4511 -710.8419)" fill="#F9F6C1" cx="960.6" cy="169.5" rx="0.7" ry="0.8"/>
		<path fill="#F9F6C1" d="M864.9,126.2c-0.3,0.2-0.8,0.2-1-0.1c-0.2-0.3-0.1-0.8,0.2-1c0.3-0.2,0.8-0.2,1,0.1
			C865.4,125.5,865.3,126,864.9,126.2z"/>
		
			<ellipse transform="matrix(0.58 0.8146 -0.8146 0.58 459.4833 -639.8331)" fill="#F9F6C1" cx="850.2" cy="125.7" rx="0.7" ry="0.8"/>
		
			<ellipse transform="matrix(-0.8263 -0.5633 0.5633 -0.8263 1402.8279 816.9937)" fill="#F9F6C1" cx="827.4" cy="192.2" rx="0.7" ry="0.8"/>
		
			<ellipse transform="matrix(-0.8268 -0.5625 0.5625 -0.8268 1358.2905 806.2197)" fill="#F9F6C1" cx="803.3" cy="194" rx="1.6" ry="1.7"/>
		
			<ellipse transform="matrix(-0.827 -0.5623 0.5623 -0.827 1390.47 699.5629)" fill="#F9F6C1" cx="802.9" cy="135.8" rx="0.7" ry="0.8"/>
		
			<ellipse transform="matrix(-0.8269 -0.5623 0.5623 -0.8269 1370.1099 713.7455)" fill="#F9F6C1" cx="794.9" cy="146" rx="0.7" ry="0.8"/>
		
			<ellipse transform="matrix(-0.8265 -0.563 0.563 -0.8265 1378.8704 756.7573)" fill="#F9F6C1" cx="806.1" cy="165.9" rx="0.7" ry="0.8"/>
		
			<ellipse transform="matrix(-0.8267 -0.5627 0.5627 -0.8267 1406.2872 736.2174)" fill="#F9F6C1" cx="816.5" cy="151.5" rx="0.7" ry="0.8"/>
		
			<ellipse transform="matrix(0.5802 0.8145 -0.8145 0.5802 505.9658 -476.9624)" fill="#F9F6C1" cx="715.7" cy="252.3" rx="1.6" ry="1.7"/>
		
			<ellipse transform="matrix(0.5805 0.8143 -0.8143 0.5805 500.9464 -498.3664)" fill="#F9F6C1" cx="734.1" cy="237" rx="0.7" ry="0.8"/>
		
			<ellipse transform="matrix(0.58 0.8146 -0.8146 0.58 496.4997 -437.4757)" fill="#F9F6C1" cx="672.5" cy="262.8" rx="0.7" ry="0.8"/>
		
			<ellipse transform="matrix(0.5793 0.8151 -0.8151 0.5793 488.2918 -511.9831)" fill="#F9F6C1" cx="740.2" cy="217.1" rx="0.7" ry="0.8"/>
		
			<ellipse transform="matrix(0.5807 0.8141 -0.8141 0.5807 481.0566 -499.9109)" fill="#F9F6C1" cx="725.9" cy="217.1" rx="0.7" ry="0.8"/>
		
			<ellipse transform="matrix(0.9461 -0.324 0.324 0.9461 -37.3436 227.0311)" fill="#F9F6C1" cx="663.2" cy="225.7" rx="0.7" ry="0.8"/>
		
			<ellipse transform="matrix(-0.8143 0.5804 -0.5804 -0.8143 1283.5282 44.1522)" fill="#F9F6C1" cx="634.7" cy="227.4" rx="1.3" ry="1.2"/>
		
			<ellipse transform="matrix(-0.827 -0.5623 0.5623 -0.827 1125.0294 913.3646)" fill="#F9F6C1" cx="703.1" cy="283.6" rx="0.7" ry="0.8"/>
		
			<ellipse transform="matrix(-0.8269 -0.5624 0.5624 -0.8269 1066.6696 786.4985)" fill="#F9F6C1" cx="654.4" cy="229.1" rx="1.6" ry="1.7"/>
		
			<ellipse transform="matrix(-0.8269 -0.5623 0.5623 -0.8269 1091.5021 810.8471)" fill="#F9F6C1" cx="670.5" cy="237.4" rx="0.7" ry="0.8"/>
		
			<ellipse transform="matrix(0.581 0.8139 -0.8139 0.581 446.174 -324.3623)" fill="#F9F6C1" cx="538.1" cy="271.1" rx="0.7" ry="0.8"/>
		
			<ellipse transform="matrix(0.5802 0.8145 -0.8145 0.5802 438.6149 -227.1969)" fill="#F9F6C1" cx="439.7" cy="311.9" rx="1.6" ry="1.7"/>
		
			<ellipse transform="matrix(0.5812 0.8138 -0.8138 0.5812 410.2525 -223.9925)" fill="#F9F6C1" cx="422.7" cy="286.6" rx="0.7" ry="0.8"/>
		
			<ellipse transform="matrix(0.5805 0.8143 -0.8143 0.5805 433.6607 -248.6726)" fill="#F9F6C1" cx="458.2" cy="296.5" rx="0.7" ry="0.8"/>
		<path fill="#F9F6C1" d="M408.7,276c-0.3,0.2-0.8,0.2-1-0.1c-0.2-0.3-0.1-0.8,0.2-1c0.3-0.2,0.8-0.2,1,0.1
			C409.1,275.3,409,275.8,408.7,276z"/>
		<path fill="#F9F6C1" d="M495,266.4c-0.3,0.2-0.8,0.2-1-0.1c-0.2-0.3-0.1-0.8,0.2-1c0.3-0.2,0.8-0.2,1,0.1
			C495.5,265.7,495.4,266.2,495,266.4z"/>
		
			<ellipse transform="matrix(0.5793 0.8151 -0.8151 0.5793 420.7376 -261.9944)" fill="#F9F6C1" cx="464.2" cy="276.6" rx="0.7" ry="0.8"/>
		
			<ellipse transform="matrix(0.5807 0.8141 -0.8141 0.5807 413.8354 -250.2837)" fill="#F9F6C1" cx="449.9" cy="276.6" rx="0.7" ry="0.8"/>
		
			<ellipse transform="matrix(0.946 -0.324 0.324 0.946 -71.5278 140.8727)" fill="#F9F6C1" cx="387.3" cy="285.2" rx="0.7" ry="0.8"/>
		
			<ellipse transform="matrix(-0.8142 0.5805 -0.5805 -0.8142 817.4066 312.3212)" fill="#F9F6C1" cx="358.7" cy="286.9" rx="1.3" ry="1.2"/>
		
			<ellipse transform="matrix(-0.8269 -0.5623 0.5623 -0.8269 587.3337 867.0048)" fill="#F9F6C1" cx="427.1" cy="343.1" rx="0.7" ry="0.8"/>
		
			<ellipse transform="matrix(-0.8269 -0.5624 0.5624 -0.8269 542.1158 856.8129)" fill="#F9F6C1" cx="402.9" cy="345" rx="1.6" ry="1.7"/>
		
			<ellipse transform="matrix(-0.8269 -0.5623 0.5623 -0.8269 567.006 881.151)" fill="#F9F6C1" cx="419.1" cy="353.3" rx="0.7" ry="0.8"/>
		
			<ellipse transform="matrix(-0.8271 -0.562 0.562 -0.8271 574.3679 750.2337)" fill="#F9F6C1" cx="402.6" cy="286.8" rx="0.7" ry="0.8"/>
		
			<ellipse transform="matrix(-0.8269 -0.5623 0.5623 -0.8269 529.0626 740.0817)" fill="#F9F6C1" cx="378.4" cy="288.6" rx="1.6" ry="1.7"/>
		
			<ellipse transform="matrix(-0.8267 -0.5627 0.5627 -0.8267 590.0697 786.7524)" fill="#F9F6C1" cx="416.2" cy="302.5" rx="0.7" ry="0.8"/>
		
			<ellipse transform="matrix(0.581 0.8139 -0.8139 0.581 250.6622 -61.3037)" fill="#F9F6C1" cx="184.9" cy="212.8" rx="0.7" ry="0.8"/>
		
			<ellipse transform="matrix(0.5805 0.8142 -0.8142 0.5805 242.7214 35.9479)" fill="#F9F6C1" cx="86.5" cy="253.5" rx="1.6" ry="1.7"/>
		
			<ellipse transform="matrix(0.5811 0.8138 -0.8138 0.5811 237.7834 14.3725)" fill="#F9F6C1" cx="104.9" cy="238.2" rx="0.7" ry="0.8"/>
		<ellipse transform="matrix(0.58 0.8146 -0.8146 0.58 233.2189 75.5895)" fill="#F9F6C1" cx="43.3" cy="264" rx="0.7" ry="0.8"/>
		
			<ellipse transform="matrix(0.5805 0.8142 -0.8142 0.5805 228.2455 -28.0918)" fill="#F9F6C1" cx="141.4" cy="207.5" rx="0.7" ry="0.8"/>
		<path fill="#F9F6C1" d="M111.4,218.9c-0.3,0.2-0.8,0.2-1-0.1c-0.2-0.3-0.1-0.8,0.2-1c0.3-0.2,0.8-0.2,1,0.1
			C111.8,218.1,111.7,218.6,111.4,218.9z"/>
		<ellipse transform="matrix(0.58 0.8146 -0.8146 0.58 218.4179 12.9259)" fill="#F9F6C1" cx="96.7" cy="218.3" rx="0.7" ry="0.8"/>
		
			<ellipse transform="matrix(-0.827 -0.5623 0.5623 -0.827 -45.5064 575.9326)" fill="#F9F6C1" cx="65.9" cy="295" rx="0.7" ry="0.8"/>
		
			<ellipse transform="matrix(0.5809 0.814 -0.814 0.5809 297.7017 -51.7037)" fill="#F9F6C1" cx="199.1" cy="263.3" rx="0.7" ry="0.8"/>
		
			<ellipse transform="matrix(0.5802 0.8145 -0.8145 0.5802 289.8647 45.634)" fill="#F9F6C1" cx="100.7" cy="304" rx="1.6" ry="1.7"/>
		
			<ellipse transform="matrix(0.5812 0.8138 -0.8138 0.5812 261.8331 48.6139)" fill="#F9F6C1" cx="83.7" cy="278.7" rx="0.7" ry="0.8"/>
		
			<ellipse transform="matrix(0.5805 0.8143 -0.8143 0.5805 285.0095 24.0941)" fill="#F9F6C1" cx="119.1" cy="288.6" rx="0.7" ry="0.8"/>
		
			<ellipse transform="matrix(0.5807 0.8141 -0.8141 0.5807 298.2573 68.8972)" fill="#F9F6C1" cx="82.2" cy="324" rx="0.7" ry="0.8"/>
		<ellipse transform="matrix(0.58 0.8146 -0.8146 0.58 280.2858 85.2216)" fill="#F9F6C1" cx="57.5" cy="314.4" rx="0.7" ry="0.8"/>
		<path fill="#F9F6C1" d="M156,258.5c-0.3,0.2-0.8,0.2-1-0.1c-0.2-0.3-0.1-0.8,0.2-1c0.3-0.2,0.8-0.2,1,0.1
			C156.4,257.8,156.3,258.3,156,258.5z"/>
		
			<ellipse transform="matrix(0.5793 0.8151 -0.8151 0.5793 271.687 11.0399)" fill="#F9F6C1" cx="125.1" cy="268.7" rx="0.7" ry="0.8"/>
		
			<ellipse transform="matrix(0.5807 0.8141 -0.8141 0.5807 265.284 22.4317)" fill="#F9F6C1" cx="110.9" cy="268.8" rx="0.7" ry="0.8"/>
		<ellipse transform="matrix(0.946 -0.324 0.324 0.946 -87.2654 30.5886)" fill="#F9F6C1" cx="48.2" cy="277.3" rx="0.7" ry="0.8"/>
		
			<ellipse transform="matrix(-0.8142 0.5806 -0.5806 -0.8142 197.7266 494.8368)" fill="#F9F6C1" cx="19.7" cy="279.1" rx="1.3" ry="1.2"/>
		
			<ellipse transform="matrix(-0.8269 -0.5623 0.5623 -0.8269 -27.6432 661.9523)" fill="#F9F6C1" cx="88" cy="335.2" rx="0.7" ry="0.8"/>
		
			<ellipse transform="matrix(-0.8268 -0.5624 0.5624 -0.8268 -72.8392 651.719)" fill="#F9F6C1" cx="63.9" cy="337.1" rx="1.6" ry="1.7"/>
		
			<ellipse transform="matrix(-0.8269 -0.5623 0.5623 -0.8269 -47.9845 676.0932)" fill="#F9F6C1" cx="80.1" cy="345.4" rx="0.7" ry="0.8"/>
		
			<ellipse transform="matrix(-0.8271 -0.562 0.562 -0.8271 -40.6825 545.2839)" fill="#F9F6C1" cx="63.5" cy="278.9" rx="0.7" ry="0.8"/>
		
			<ellipse transform="matrix(-0.8269 -0.5623 0.5623 -0.8269 -85.9201 535.0373)" fill="#F9F6C1" cx="39.4" cy="280.7" rx="1.6" ry="1.7"/>
		
			<ellipse transform="matrix(-0.8273 -0.5618 0.5618 -0.8273 -51.679 601.9907)" fill="#F9F6C1" cx="66.7" cy="308.9" rx="0.7" ry="0.8"/>
		
			<ellipse transform="matrix(-0.8267 -0.5626 0.5626 -0.8267 -24.8053 581.5784)" fill="#F9F6C1" cx="77.2" cy="294.6" rx="0.7" ry="0.8"/>
		
			<ellipse transform="matrix(0.5809 0.814 -0.814 0.5809 495.2135 -784.658)" fill="#F9F6C1" cx="1009.6" cy="88.6" rx="0.7" ry="0.8"/>
		
			<ellipse transform="matrix(0.5802 0.8145 -0.8145 0.5802 487.8454 -687.8475)" fill="#F9F6C1" cx="911.2" cy="129.3" rx="1.6" ry="1.7"/>
		
			<ellipse transform="matrix(0.581 0.8139 -0.8139 0.581 459.3665 -684.2608)" fill="#F9F6C1" cx="894.2" cy="104" rx="0.7" ry="0.8"/>
		
			<ellipse transform="matrix(0.5805 0.8142 -0.8142 0.5805 482.7866 -709.1723)" fill="#F9F6C1" cx="929.7" cy="114" rx="0.7" ry="0.8"/>
		<path fill="#F9F6C1" d="M880.2,93.5c-0.3,0.2-0.8,0.2-1-0.1c-0.2-0.3-0.1-0.8,0.2-1c0.3-0.2,0.8-0.2,1,0.1
			C880.6,92.8,880.5,93.2,880.2,93.5z"/>
		
			<ellipse transform="matrix(0.5805 0.8143 -0.8143 0.5805 496.147 -664.3232)" fill="#F9F6C1" cx="892.8" cy="149.3" rx="0.7" ry="0.8"/>
		
			<ellipse transform="matrix(0.58 0.8146 -0.8146 0.58 478.4346 -648.4307)" fill="#F9F6C1" cx="868.1" cy="139.8" rx="0.7" ry="0.8"/>
		<path fill="#F9F6C1" d="M966.5,83.9c-0.3,0.2-0.8,0.2-1-0.1c-0.2-0.3-0.1-0.8,0.2-1c0.3-0.2,0.8-0.2,1,0.1
			C967,83.1,966.9,83.6,966.5,83.9z"/>
		
			<ellipse transform="matrix(0.5794 0.815 -0.815 0.5794 470.2295 -723.0748)" fill="#F9F6C1" cx="935.7" cy="94.1" rx="0.7" ry="0.8"/>
		
			<ellipse transform="matrix(0.5807 0.8141 -0.8141 0.5807 462.9781 -710.7101)" fill="#F9F6C1" cx="921.4" cy="94.1" rx="0.7" ry="0.8"/>
		<ellipse transform="matrix(0.9461 -0.324 0.324 0.9461 13.0611 283.8)" fill="#F9F6C1" cx="858.8" cy="102.7" rx="0.7" ry="0.8"/>
		
			<ellipse transform="matrix(-0.8269 -0.5623 0.5623 -0.8269 1555.194 898.4611)" fill="#F9F6C1" cx="915.9" cy="209.9" rx="0.7" ry="0.8"/>
		
			<ellipse transform="matrix(-0.8269 -0.5623 0.5623 -0.8269 1517.9264 696.0731)" fill="#F9F6C1" cx="866.1" cy="114.4" rx="0.7" ry="0.8"/>
		
			<ellipse transform="matrix(-0.8272 -0.5619 0.5619 -0.8272 1527.4836 738.2838)" fill="#F9F6C1" cx="877.3" cy="134.3" rx="0.7" ry="0.8"/>
		<path fill="#F9F6C1" d="M887.1,119.5c0.2-0.4,0.7-0.5,1-0.2c0.3,0.2,0.4,0.7,0.2,1c-0.2,0.4-0.7,0.5-1,0.2
			C887,120.4,886.9,119.9,887.1,119.5z"/>
		
			<ellipse transform="matrix(0.9093 -0.4162 0.4162 0.9093 80.4007 375.1406)" fill="#F9F6C1" cx="900.8" cy="3.1" rx="0.7" ry="0.8"/>
		
			<ellipse transform="matrix(0.909 -0.4168 0.4168 0.909 31.6087 383.4693)" fill="#F9F6C1" cx="894.1" cy="119.3" rx="0.7" ry="0.8"/>
		
			<ellipse transform="matrix(0.9093 -0.4161 0.4161 0.9093 46.6034 386.7182)" fill="#F9F6C1" cx="910.5" cy="86.4" rx="0.7" ry="0.8"/>
		
			<ellipse transform="matrix(0.9089 -0.4171 0.4171 0.9089 25.4096 379.1564)" fill="#F9F6C1" cx="880.4" cy="131.4" rx="0.7" ry="0.8"/>
		
			<ellipse transform="matrix(0.9094 -0.4159 0.4159 0.9094 31.1988 401.9361)" fill="#F9F6C1" cx="938.3" cy="129.3" rx="0.7" ry="0.8"/>
		
			<ellipse transform="matrix(0.9094 -0.4159 0.4159 0.9094 20.5725 398.1103)" fill="#F9F6C1" cx="924.2" cy="151.8" rx="0.7" ry="0.8"/>
		<path fill="#F9F6C1" d="M892.8,76.5c0.2,0.4,0,0.8-0.3,1c-0.4,0.2-0.8,0-1-0.4c-0.2-0.4,0-0.8,0.3-1
			C892.2,75.9,892.6,76.1,892.8,76.5z"/>
		
			<ellipse transform="matrix(0.9093 -0.4161 0.4161 0.9093 42.886 378.3394)" fill="#F9F6C1" cx="889.5" cy="90.8" rx="0.7" ry="0.8"/>
		
			<ellipse transform="matrix(-0.1391 -0.9903 0.9903 -0.1391 856.88 1052.739)" fill="#F9F6C1" cx="886" cy="153.9" rx="0.7" ry="0.8"/>
		
			<ellipse transform="matrix(0.4157 0.9095 -0.9095 0.4157 681.2719 -695.9614)" fill="#F9F6C1" cx="882.3" cy="182.3" rx="1.3" ry="1.2"/>
		
			<ellipse transform="matrix(-0.7092 0.705 -0.705 -0.7092 1713.1355 -455.0391)" fill="#F9F6C1" cx="950.4" cy="125.8" rx="0.7" ry="0.8"/>
		<path fill="#F9F6C1" d="M958.4,136c-0.3-0.3-0.3-0.8,0-1c0.3-0.3,0.7-0.3,1,0c0.3,0.3,0.3,0.8,0,1
			C959.2,136.4,958.7,136.3,958.4,136z"/>
		
			<ellipse transform="matrix(-0.7082 0.706 -0.706 -0.7082 1619.3158 -390.9358)" fill="#F9F6C1" cx="890.5" cy="139.2" rx="0.7" ry="0.8"/>
		
			<ellipse transform="matrix(-0.7082 0.706 -0.706 -0.7082 1672.5665 -407.7829)" fill="#F9F6C1" cx="920.6" cy="141.7" rx="0.7" ry="0.8"/>
		
			<ellipse transform="matrix(-0.7085 0.7057 -0.7057 -0.7085 1643.005 -421.0739)" fill="#F9F6C1" cx="908.5" cy="128.8" rx="0.7" ry="0.8"/>
		
			<ellipse transform="matrix(0.9933 -0.1152 0.1152 0.9933 2.5366 69.4834)" fill="#F9F6C1" cx="602.4" cy="12.8" rx="0.7" ry="0.8"/>
		<ellipse transform="matrix(0.1728 -0.985 0.985 0.1728 464.7424 559.441)" fill="#F9F6C1" cx="565.4" cy="3" rx="0.7" ry="0.8"/>
		
			<ellipse transform="matrix(0.1155 0.9933 -0.9933 0.1155 517.9282 -523.9557)" fill="#F9F6C1" cx="553.2" cy="28.8" rx="1.3" ry="1.2"/>
		
			<ellipse transform="matrix(-0.8915 0.4529 -0.4529 -0.8915 1191.035 -248.9753)" fill="#F9F6C1" cx="625.3" cy="18.1" rx="1.6" ry="1.7"/>
		
			<ellipse transform="matrix(-0.8916 0.4529 -0.4529 -0.8916 1215.0486 -274.9568)" fill="#F9F6C1" cx="640.4" cy="8" rx="0.7" ry="0.8"/>
		
			<ellipse transform="matrix(-0.8914 0.4532 -0.4532 -0.8914 1072.6674 -232.1787)" fill="#F9F6C1" cx="564.1" cy="12.4" rx="1.6" ry="1.7"/>
		
			<ellipse transform="matrix(-0.8916 0.4529 -0.4529 -0.8916 1096.7544 -258.0122)" fill="#F9F6C1" cx="579.3" cy="2.3" rx="0.7" ry="0.8"/>
		
			<ellipse transform="matrix(-0.8915 0.4529 -0.4529 -0.8915 1139.7195 -268.7478)" fill="#F9F6C1" cx="602" cy="2.1" rx="0.7" ry="0.8"/>
	</g>
</g>
</svg>
