<?xml version="1.0" encoding="utf-8"?>
<!-- Generator: Adobe Illustrator 19.1.0, SVG Export Plug-In . SVG Version: 6.00 Build 0)  -->
<!DOCTYPE svg PUBLIC "-//W3C//DTD SVG 1.1//EN" "http://www.w3.org/Graphics/SVG/1.1/DTD/svg11.dtd">
<svg version="1.1" id="Layer_1" xmlns="http://www.w3.org/2000/svg" xmlns:xlink="http://www.w3.org/1999/xlink" x="0px" y="0px"
	 viewBox="0 45.9 400 619" enable-background="new 0 45.9 400 619" xml:space="preserve">
<g id="Layer_1_1_" display="none">
	<g display="inline">
		<path fill="#FFFFFF" d="M284.6,541.1c0,8.7-7,15.8-15.6,15.8H132.2c-8.6,0-15.6-7.1-15.6-15.8V356.9c0-8.7,7-15.8,15.6-15.8h136.8
			c8.6,0,15.6,7.1,15.6,15.8V541.1z"/>
		<g>
			<path fill="#FFFFFF" d="M302.2,239.5c0,56.1-45.5,101.6-101.6,101.6C144.5,341.1,99,295.6,99,239.5s45.5-101.6,101.6-101.6
				C256.7,137.9,302.2,183.4,302.2,239.5z"/>
			<circle fill="#F34F45" cx="200.6" cy="250.2" r="80.7"/>
			<path fill="#333333" d="M270.9,250.2c0,38.8-31.5,70.3-70.3,70.3s-70.3-31.5-70.3-70.3s31.5-70.3,70.3-70.3
				C239.4,179.9,270.9,211.5,270.9,250.2z"/>
		</g>
		<path fill="#D2D2D2" d="M279.3,331.7c0-7-4.1-12.7-9.1-12.7H130.9c-5,0-9.1,5.7-9.1,12.7l0,0c0,7,4.1,12.7,9.1,12.7h139.2
			C275.2,344.4,279.3,338.7,279.3,331.7L279.3,331.7z"/>
		<rect x="116.6" y="494.5" fill="#333333" width="168.1" height="17.1"/>
		<rect x="116.6" y="516.2" fill="#D2D2D2" width="168.1" height="6.6"/>
		<g>
			<path fill="#F34F45" d="M248.7,453.2c0,8.6-7,15.6-15.6,15.6h-65c-8.6,0-15.6-7-15.6-15.6v-56.1c0-8.6,7-15.6,15.6-15.6h65
				c8.6,0,15.6,7,15.6,15.6V453.2z"/>
			<circle fill="#333333" cx="174.8" cy="410.5" r="7.8"/>
			<circle fill="#333333" cx="174.8" cy="439" r="7.8"/>
			<path fill="#D2D2D2" d="M235.9,441.9c0-2.7-2.2-4.9-4.9-4.9h-30.3c-2.7,0-4.9,2.2-4.9,4.9l0,0c0,2.7,2.2,4.9,4.9,4.9H231
				C233.6,446.8,235.9,444.5,235.9,441.9L235.9,441.9z"/>
			<path fill="#D2D2D2" d="M235.9,425.2c0-2.7-2.2-4.9-4.9-4.9h-30.3c-2.7,0-4.9,2.2-4.9,4.9l0,0c0,2.7,2.2,4.9,4.9,4.9H231
				C233.6,430.1,235.9,427.9,235.9,425.2L235.9,425.2z"/>
			<path fill="#D2D2D2" d="M235.9,408.6c0-2.7-2.2-4.9-4.9-4.9h-30.3c-2.7,0-4.9,2.2-4.9,4.9l0,0c0,2.7,2.2,4.9,4.9,4.9H231
				C233.6,413.5,235.9,411.3,235.9,408.6L235.9,408.6z"/>
		</g>
		<g>
			<rect x="122.7" y="541.3" fill="#FFFFFF" width="64.3" height="109.8"/>
			<rect x="214.2" y="541.3" fill="#FFFFFF" width="64.3" height="109.8"/>
			<path fill="#F34F45" d="M177,569.1c10.3,0,18.6-6.7,18.6-14.9v-1c0-8.2-8.3-14.9-18.6-14.9h-44.3c-10.3,0-18.6,6.7-18.6,14.9v1
				c0,8.2,8.3,14.9,18.6,14.9H177z"/>
			<path fill="#F34F45" d="M224.2,569.1c-10.3,0-18.6-6.7-18.6-14.9v-1c0-8.2,8.3-14.9,18.6-14.9h44.3c10.3,0,18.6,6.7,18.6,14.9v1
				c0,8.2-8.3,14.9-18.6,14.9H224.2z"/>
			<path fill="#F34F45" d="M280.9,665c0.2-1.5,0.3-3.1,0.3-4.7c0-19.2-15.7-34.9-34.9-34.9s-34.9,15.7-34.9,34.9
				c0,1.6,0.1,3.2,0.3,4.7H280.9z"/>
			<path fill="#F34F45" d="M120.3,665c-0.2-1.5-0.3-3.1-0.3-4.7c0-19.2,15.7-34.9,34.9-34.9s34.9,15.7,34.9,34.9
				c0,1.6-0.1,3.2-0.3,4.7H120.3z"/>
		</g>
		<g>
			<g>
				<path fill="#FFFFFF" d="M103.8,421.8L30.9,308.1c-6.6-10.2,2.8-12.5,13-19.2l7.1-4.5c10.2-6.6,17.4-15,24-4.8l69.2,106.7
					L103.8,421.8z"/>
				<g>
					<path fill="#D2D2D2" d="M59.2,280.6c4.7-3.4,4.2-12-1-19.2l-0.7-0.9c-5.3-7.3-13.3-10.4-17.9-7l-20.2,14.6
						c-4.7,3.4-4.2,12,1,19.2l0.7,0.9c5.3,7.3,13.3,10.4,17.9,7L59.2,280.6z"/>
					<path fill="#D2D2D2" d="M59.9,253.1c-0.1-2.8-2.5-5.1-5.4-5l0,0c-2.8,0.1-5.1,2.5-5,5.4l0.8,19.7c0.1,2.8,2.5,5.1,5.4,5l0,0
						c2.8-0.1,5.1-2.5,5-5.4L59.9,253.1z"/>
					<path fill="#D2D2D2" d="M22.2,270.7c-1.7-2.3-5-2.7-7.5-0.9l0,0c-2.5,1.8-3,5.1-1.3,7.5l4,5.6c1.7,2.3,5,2.7,7.5,0.9l0,0
						c2.5-1.8,3-5.1,1.3-7.4L22.2,270.7z"/>
					<path fill="#D2D2D2" d="M29.9,261.7c-1.7-2.4-5.1-2.6-7.6-0.8l0,0c-2.5,1.9-3.2,5.3-1.5,7.5l4,5.6c1.7,2.4,5.1,2.6,7.6,0.8l0,0
						c2.5-1.9,3.2-5.3,1.5-7.5L29.9,261.7z"/>
					<path fill="#D2D2D2" d="M37.8,254.2c-1.7-2.3-5-2.7-7.5-0.9l0,0c-2.5,1.8-3,5.1-1.3,7.5l4,5.6c1.7,2.3,5,2.7,7.5,0.9l0,0
						c2.5-1.8,3-5.1,1.3-7.4L37.8,254.2z"/>
					<path fill="#D2D2D2" d="M49.1,250.3c-1.7-2.3-5.2-2.6-7.7-0.8l0,0c-2.5,1.9-3.3,5.3-1.6,7.6l4,5.6c1.7,2.4,8.3,6.4,10.9,4.5
						l-3.1-3.8c2.5-1.9,6.4-1.5,4.7-3.9L49.1,250.3z"/>
				</g>
				<path fill="#F34F45" d="M70,293c5.9-4.2,7.6-11.7,4.1-16.6l-0.5-0.7c-3.6-5-11.2-5.6-17.1-1.3l-25.2,18.2
					c-5.9,4.2-7.6,11.7-4.1,16.6l0.5,0.7c3.6,5,11.2,5.6,17.1,1.3L70,293z"/>
			</g>
			<g>
				<path fill="#FFFFFF" d="M297.5,421.8L370.3,308c6.6-10.2-2.8-12.5-13-19.2l-7.1-4.5c-10.2-6.6-17.4-15-24-4.8l-69.2,106.7
					L297.5,421.8z"/>
				<g>
					<path fill="#D2D2D2" d="M340.8,280.6c-4.7-3.4-4.2-12,1-19.2l0.7-0.9c5.3-7.3,13.3-10.4,17.9-7l20.2,14.6
						c4.7,3.4,4.2,12-1,19.2l-0.7,0.9c-5.3,7.3-13.3,10.4-17.9,7L340.8,280.6z"/>
					<path fill="#D2D2D2" d="M340.1,253.1c0.1-2.8,2.5-5.1,5.4-5l0,0c2.8,0.1,5.1,2.5,5,5.4l-0.8,19.7c-0.1,2.8-2.5,5.1-5.4,5l0,0
						c-2.8-0.1-5.1-2.5-5-5.4L340.1,253.1z"/>
					<path fill="#D2D2D2" d="M377.8,270.7c1.7-2.3,5-2.7,7.5-0.9l0,0c2.5,1.8,3,5.1,1.3,7.5l-4,5.6c-1.7,2.3-5,2.7-7.5,0.9l0,0
						c-2.5-1.8-3-5.1-1.3-7.4L377.8,270.7z"/>
					<path fill="#D2D2D2" d="M370.1,261.7c1.7-2.4,5.1-2.6,7.6-0.8l0,0c2.5,1.9,3.2,5.3,1.5,7.5l-4,5.6c-1.7,2.4-5.1,2.6-7.6,0.8
						l0,0c-2.5-1.9-3.2-5.3-1.5-7.5L370.1,261.7z"/>
					<path fill="#D2D2D2" d="M362.2,254.2c1.7-2.3,5-2.7,7.5-0.9l0,0c2.5,1.8,3,5.1,1.3,7.5l-4,5.6c-1.7,2.3-5,2.7-7.5,0.9l0,0
						c-2.5-1.8-3-5.1-1.3-7.4L362.2,254.2z"/>
					<path fill="#D2D2D2" d="M350.9,250.3c1.7-2.3,5.2-2.6,7.7-0.8l0,0c2.5,1.9,3.3,5.3,1.6,7.6l-4,5.6c-1.7,2.4-8.3,6.4-10.9,4.5
						l3.1-3.8c-2.5-1.9-6.4-1.5-4.7-3.9L350.9,250.3z"/>
				</g>
				<path fill="#F34F45" d="M331.3,292.9c-5.9-4.2-7.6-11.7-4.1-16.6l0.5-0.7c3.6-5,11.2-5.6,17.1-1.3l25.2,18.2
					c5.9,4.2,7.6,11.7,4.1,16.6l-0.5,0.7c-3.6,5-11.2,5.6-17.1,1.3L331.3,292.9z"/>
			</g>
		</g>
		<g>
			<path fill="#F34F45" d="M118,429h-2.9c-7.5,0-13.6-6-13.6-13.6v-63.1c0-7.5,6-13.6,13.6-13.6h2.9c7.5,0,13.6,6,13.6,13.6v63.1
				C131.6,423,125.5,429,118,429z"/>
			<path fill="#F34F45" d="M286.1,429h-2.9c-7.5,0-13.6-6-13.6-13.6v-63.1c0-7.5,6-13.6,13.6-13.6h2.9c7.5,0,13.6,6,13.6,13.6v63.1
				C299.6,423,293.6,429,286.1,429z"/>
		</g>
	</g>
	<g display="inline">
		<path fill="#333333" d="M300.7,151.6v-28l-9.8,5.2v22.8l-6.4,19.5l9.7,12.9h3.3l9.7-12.9L300.7,151.6z"/>
		<g>
			<path fill="#333333" d="M136.1,125.1v35.4c0,0,26.2-14.2,64.1-14.2c37.5,0,64,14.2,64,14.2v-35.9c0,0-26.5-17.2-64.5-17.2
				C162.4,107.5,136.1,125.1,136.1,125.1L136.1,125.1z"/>
			<path fill="#333333" d="M312.9,109.8l-115.4-64L87.1,109.1l41.7,19v-6.1c0,0,29.3-20.6,71.2-20.6c42.7,0,71.6,20,71.6,20v10.8
				L312.9,109.8z"/>
		</g>
	</g>
</g>
<g id="Layer_2">
	<g>
		<path fill="#FFFFFF" d="M308.6,540.9c0,8.7-7,15.8-15.6,15.8H156c-8.6,0-15.6-7.1-15.6-15.8V356.3c0-8.7,7-15.8,15.6-15.8h137
			c8.6,0,15.6,7.1,15.6,15.8V540.9z"/>
		<g>
			<path fill="#FFFFFF" d="M326.2,238.8c0,56.2-45.6,101.8-101.8,101.8S122.6,295,122.6,238.8S168.2,137,224.4,137
				S326.2,182.6,326.2,238.8z"/>
			<circle fill="#F34F45" cx="224.4" cy="249.5" r="80.8"/>
			<path fill="#333333" d="M294.8,249.5c0,38.9-31.5,70.4-70.4,70.4S154,288.4,154,249.5s31.5-70.4,70.4-70.4
				C263.3,179.1,294.8,210.6,294.8,249.5z"/>
		</g>
		<path fill="#D2D2D2" d="M303.2,331.1c0-7-4.1-12.7-9.1-12.7H154.7c-5,0-9.1,5.7-9.1,12.7l0,0c0,7,4.1,12.7,9.1,12.7h139.4
			C299.2,343.8,303.2,338.1,303.2,331.1L303.2,331.1z"/>
		<g>
			<g id="waving-arm">
				<path fill="#FFFFFF" d="M174.3,393.4L93.1,285.1c-7.2-9.8-12.7-1.8-22.5,5.5l-6.8,5c-9.8,7.3-20.2,11-12.9,20.8l75.8,102.4
					L174.3,393.4z"/>
				<g>
					<path fill="#D2D2D2" d="M77.9,287.9c4.6-3.6,3.8-12.1-1.7-19.2l-0.7-0.9c-5.5-7-13.7-9.9-18.2-6.3l-19.8,15.4
						c-4.6,3.6-3.8,12.2,1.7,19.2l0.7,0.9c5.5,7.1,13.7,9.9,18.2,6.3L77.9,287.9z"/>
					<path fill="#D2D2D2" d="M80.9,257.7c0-2.9-2.4-5.2-5.2-5.2l0,0c-2.9,0-5.2,2.4-5.2,5.2l0.1,19.8c0,2.9,2.4,5.2,5.2,5.2l0,0
						c2.9,0,5.2-2.4,5.2-5.2L80.9,257.7z"/>
					<path fill="#D2D2D2" d="M30.8,267.8c-1.8-2.2-5.1-2.6-7.3-0.8l0,0c-2.3,1.8-2.6,5.1-0.8,7.3L35,289.8c1.8,2.2,5.1,2.6,7.3,0.8
						l0,0c2.3-1.8,2.6-5.1,0.8-7.3L30.8,267.8z"/>
					<path fill="#D2D2D2" d="M36.4,256.5c-1.8-2.3-5.1-2.6-7.3-0.8l0,0c-2.3,1.8-2.6,5.1-0.8,7.3l12.2,15.5c1.8,2.3,5.1,2.6,7.3,0.8
						l0,0c2.3-1.8,2.6-5.1,0.8-7.3L36.4,256.5z"/>
					<path fill="#D2D2D2" d="M43.3,246.5c-1.8-2.2-5.1-2.6-7.3-0.8l0,0c-2.2,1.8-2.6,5.1-0.8,7.3l12.3,15.5c1.8,2.2,5.1,2.6,7.3,0.8
						l0,0c2.3-1.8,2.6-5.1,0.8-7.3L43.3,246.5z"/>
					<path fill="#D2D2D2" d="M56.2,244.2c-1.8-2.2-5.1-2.6-7.3-0.8l0,0c-2.3,1.8-2.6,5.1-0.8,7.3l12.3,15.5
						c1.8,2.3,8.3,6.3,10.6,4.5l-3.3-3.7c2.2-1.8,5.9-1.4,4.1-3.6L56.2,244.2z"/>
				</g>
				<path fill="#F34F45" d="M65.3,316.5c-6,4-13.6,3.1-17-2l-0.4-0.7c-3.4-5.1-1.3-12.5,4.7-16.5l25.9-17.2c6-4,13.6-3.1,17,2
					l0.4,0.7c3.4,5.1,1.3,12.5-4.7,16.5L65.3,316.5z"/>
			</g>
			<g>
				<path fill="#FFFFFF" d="M322.8,352l41.1,129c3.7,11.6-6,11.4-17.5,15.2l-8,2.6c-11.6,3.7-20.7,10.1-24.4-1.6L274.6,376
					L322.8,352z"/>
				<g>
					<path fill="#D2D2D2" d="M329.3,499.8c-5.4,2.1-7.2,10.5-4,18.8l0.4,1.1c3.2,8.3,10.2,13.5,15.6,11.4l23.3-8.9
						c5.4-2.1,7.2-10.5,4-18.9l-0.4-1.1c-3.2-8.3-10.2-13.5-15.6-11.4L329.3,499.8z"/>
					<path fill="#D2D2D2" d="M317.4,527.7c-0.8,2.8,0.8,5.7,3.4,6.5l0,0c2.8,0.8,5.7-0.8,6.5-3.4l5.7-19c0.8-2.8-0.8-5.7-3.5-6.4
						l0,0c-2.8-0.8-5.7,0.8-6.5,3.4L317.4,527.7z"/>
					<path fill="#D2D2D2" d="M368.3,532.8c1,2.7,4.1,4,6.8,2.9l0,0c2.7-1,4-4.1,2.9-6.8l-7.3-18.4c-1-2.7-4.1-4-6.8-2.9l0,0
						c-2.7,1-4,4.1-2.9,6.8L368.3,532.8z"/>
					<path fill="#D2D2D2" d="M359.7,541.9c1,2.7,4.1,4,6.8,2.9l0,0c2.7-1,4-4.1,2.9-6.8l-7.3-18.4c-1-2.7-4.1-4-6.8-2.9l0,0
						c-2.7,1-4,4.1-2.9,6.8L359.7,541.9z"/>
					<path fill="#D2D2D2" d="M350.1,549.5c1,2.7,4.1,4,6.8,2.9l0,0c2.7-1,4-4.1,2.9-6.8l-7.3-18.4c-1-2.7-4.1-4-6.8-2.9l0,0
						c-2.7,1-4,4.1-2.9,6.8L350.1,549.5z"/>
					<path fill="#D2D2D2" d="M337.1,548c1,2.7,4.1,4,6.8,2.9l0,0c2.7-1,4-4.1,2.9-6.8l-7.2-18.4c-1-2.7-6.1-8.5-8.8-7.4l2,4.5
						c-2.7,1-6-0.4-5,2.3L337.1,548z"/>
				</g>
				<path fill="#F34F45" d="M322.2,485.5c-6.7,2.6-10.5,9.3-8.3,15.1l0.3,0.7c2.2,5.8,9.5,8.3,16.2,5.8l29.1-11.2
					c6.7-2.6,10.5-9.3,8.3-15.1l-0.3-0.7c-2.2-5.8-9.5-8.3-16.2-5.7L322.2,485.5z"/>
			</g>
		</g>
		<rect x="140.3" y="494.2" fill="#333333" width="168.3" height="17.1"/>
		<rect x="140.3" y="515.9" fill="#D2D2D2" width="168.3" height="6.6"/>
		<g>
			<path fill="#F34F45" d="M272.6,452.8c0,8.6-7,15.6-15.6,15.6h-65.1c-8.6,0-15.6-7-15.6-15.6v-56.1c0-8.6,7-15.6,15.6-15.6H257
				c8.6,0,15.6,7,15.6,15.6V452.8z"/>
			<circle fill="#333333" cx="198.6" cy="410" r="7.8"/>
			<circle fill="#333333" cx="198.6" cy="438.5" r="7.8"/>
			<path fill="#D2D2D2" d="M259.7,441.4c0-2.7-2.2-5-4.9-5h-30.4c-2.7,0-4.9,2.2-4.9,5l0,0c0,2.7,2.2,4.9,4.9,4.9h30.4
				C257.5,446.4,259.7,444.1,259.7,441.4L259.7,441.4z"/>
			<path fill="#D2D2D2" d="M259.7,424.7c0-2.7-2.2-4.9-4.9-4.9h-30.4c-2.7,0-4.9,2.2-4.9,4.9l0,0c0,2.7,2.2,4.9,4.9,4.9h30.4
				C257.5,429.7,259.7,427.5,259.7,424.7L259.7,424.7z"/>
			<path fill="#D2D2D2" d="M259.7,408.1c0-2.7-2.2-4.9-4.9-4.9h-30.4c-2.7,0-4.9,2.2-4.9,4.9l0,0c0,2.7,2.2,4.9,4.9,4.9h30.4
				C257.5,413,259.7,410.8,259.7,408.1L259.7,408.1z"/>
		</g>
		<g>
			<rect x="146.4" y="541.1" fill="#FFFFFF" width="64.4" height="110"/>
			<rect x="238" y="541.1" fill="#FFFFFF" width="64.4" height="110"/>
			<path fill="#F34F45" d="M200.8,568.9c10.3,0,18.6-6.7,18.6-15v-1c0-8.3-8.3-14.9-18.6-14.9h-44.3c-10.3,0-18.6,6.7-18.6,14.9v1.1
				c0,8.3,8.3,15,18.6,15L200.8,568.9L200.8,568.9z"/>
			<path fill="#F34F45" d="M248,568.9c-10.3,0-18.6-6.7-18.6-15v-1c0-8.3,8.3-14.9,18.6-14.9h44.3c10.3,0,18.6,6.7,18.6,14.9v1.1
				c0,8.3-8.3,15-18.6,15L248,568.9L248,568.9z"/>
			<path fill="#F34F45" d="M304.8,664.9c0.2-1.5,0.3-3.1,0.3-4.7c0-19.3-15.7-35-35-35s-35,15.7-35,35c0,1.6,0.1,3.2,0.3,4.7H304.8z
				"/>
			<path fill="#F34F45" d="M144,664.9c-0.2-1.5-0.3-3.1-0.3-4.7c0-19.3,15.7-35,35-35s35,15.7,35,35c0,1.6-0.1,3.2-0.3,4.7H144z"/>
		</g>
		<g>
			<path fill="#F34F45" d="M140.9,428.6h-1.4c-8,0-14.4-6.4-14.4-14.4v-61.7c0-8,6.4-14.4,14.4-14.4h1.4c8,0,14.4,6.4,14.4,14.4
				v61.7C155.3,422.2,148.9,428.6,140.9,428.6z"/>
			<path fill="#F34F45" d="M309.3,428.6h-1.4c-8,0-14.4-6.4-14.4-14.4v-61.7c0-8,6.4-14.4,14.4-14.4h1.4c8,0,14.4,6.4,14.4,14.4
				v61.7C323.7,422.2,317.2,428.6,309.3,428.6z"/>
		</g>
	</g>
</g>
<g id="Layer_3" display="none">
	<g display="inline">
		<path fill="#FFFFFF" d="M284.4,540.5c0,8.7-7,15.8-15.7,15.8H131.2c-8.6,0-15.7-7.1-15.7-15.8V355.2c0-8.7,7-15.8,15.7-15.8h137.6
			c8.6,0,15.7,7.1,15.7,15.8L284.4,540.5L284.4,540.5z"/>
		<g>
			<path fill="#FFFFFF" d="M302.1,237.2c0,56.4-45.7,102.1-102.1,102.1S97.9,293.6,97.9,237.2S143.6,135.1,200,135.1
				S302.1,180.8,302.1,237.2z"/>
			<circle fill="#F34F45" cx="200" cy="248" r="81.1"/>
			<path fill="#333333" d="M270.7,248c0,39-31.6,70.6-70.6,70.6S129.4,287,129.4,248s31.6-70.6,70.6-70.6
				C239,177.3,270.7,208.9,270.7,248z"/>
		</g>
		<path fill="#D2D2D2" d="M279.1,329.9c0-7.1-4.1-12.8-9.2-12.8H130c-5,0-9.2,5.7-9.2,12.8l0,0c0,7.1,4.1,12.8,9.2,12.8h140
			C275,342.7,279.1,337,279.1,329.9L279.1,329.9z"/>
		<path fill="#FFFFFF" d="M149,371.7l-82.7-34.6c-13.4-5.6-28.9,0.7-34.5,14.2l0,0c-5.6,13.4,0.7,28.9,14.2,34.5l82.7,34.6
			L149,371.7z"/>
		<path fill="#D2D2D2" d="M140,235.2c3.9-4.6,8.3-8.2,14.1-12.2c0.6-0.4,0.4-0.7-0.1-0.9c-0.4-0.3-1.2-0.6-1.2-0.6s0.3-0.2,0.8-0.4
			c0.4-0.3,2-1.1,2.6-1.6c0.5-0.4,0.7-0.7,0.7-0.8s-0.1-0.3-0.5-0.4c-0.3-0.2-1.2-0.7-1.2-0.7s0.4-0.3,1-0.6c0.6-0.3,1.1-0.9,1.2-1
			s-0.2-0.3-1.1-0.9c-0.9-0.6-3.6-1.9-4.1-2.1c-0.5-0.3-0.9-0.3-2.9,0.4s-5.6,3.2-5.5,3.3c0,0-0.6-0.3-1.2-0.5
			c-0.6-0.3-1.2-0.1-3.2,1c-2,1.2-4.6,3.1-8,5.8c-3,2.5-8.4,6.7-16,15.8c-8.5,10-10.9,14.1-13.8,25.8c-1.6,6.7,3.2,15.7,3.3,15.7
			c2.7-0.4,7.4-1.4,10.1-1.6c0,0,1.4-0.1,2.8-0.5c1.5-0.4,1.1-1.7,2-3.8c0,0-0.7,2.1,4.8-3.3c3.6-3.6,6.8-5,11.2-5.1
			c4.8-0.1,8.9,0.3,14.1,1.5c6,1.4,10.2,1.7,11.1-0.6c0.6-1.8,0.1-6.1-6.7-7.1c-4.2-0.6-13.7-16.7-15.1-19.4
			C137.7,238.5,138.8,236.5,140,235.2z"/>
		<rect x="115.5" y="493.5" fill="#333333" width="168.9" height="17.1"/>
		<rect x="115.5" y="515.3" fill="#D2D2D2" width="168.9" height="6.7"/>
		<g>
			<path fill="#F34F45" d="M248.4,452c0,8.6-7,15.7-15.7,15.7h-65.4c-8.6,0-15.7-7-15.7-15.7v-56.4c0-8.6,7-15.7,15.7-15.7h65.4
				c8.6,0,15.7,7,15.7,15.7L248.4,452L248.4,452z"/>
			<circle fill="#333333" cx="174" cy="409.1" r="7.9"/>
			<circle fill="#333333" cx="174" cy="437.7" r="7.9"/>
			<path fill="#D2D2D2" d="M235.4,440.5c0-2.8-2.2-4.9-4.9-4.9H200c-2.8,0-4.9,2.2-4.9,4.9l0,0c0,2.8,2.2,4.9,4.9,4.9h30.4
				C233.2,445.6,235.4,443.3,235.4,440.5L235.4,440.5z"/>
			<path fill="#D2D2D2" d="M235.4,423.9c0-2.8-2.2-4.9-4.9-4.9H200c-2.8,0-4.9,2.2-4.9,4.9l0,0c0,2.8,2.2,4.9,4.9,4.9h30.4
				C233.2,428.8,235.4,426.6,235.4,423.9L235.4,423.9z"/>
			<path fill="#D2D2D2" d="M235.4,407.1c0-2.8-2.2-4.9-4.9-4.9H200c-2.8,0-4.9,2.2-4.9,4.9l0,0c0,2.8,2.2,4.9,4.9,4.9h30.4
				C233.2,412.1,235.4,409.9,235.4,407.1L235.4,407.1z"/>
		</g>
		<g>
			<rect x="121.7" y="540.6" fill="#FFFFFF" width="64.7" height="110.4"/>
			<rect x="213.6" y="540.6" fill="#FFFFFF" width="64.7" height="110.4"/>
			<path fill="#F34F45" d="M176.3,568.5c10.3,0,18.7-6.7,18.7-15v-1c0-8.3-8.4-15-18.7-15h-44.4c-10.3,0-18.7,6.7-18.7,15v1
				c0,8.3,8.4,15,18.7,15H176.3z"/>
			<path fill="#F34F45" d="M223.7,568.5c-10.3,0-18.7-6.7-18.7-15v-1c0-8.3,8.4-15,18.7-15h44.4c10.3,0,18.7,6.7,18.7,15v1
				c0,8.3-8.4,15-18.7,15H223.7z"/>
			<path fill="#F34F45" d="M280.7,664.9c0.2-1.6,0.3-3.1,0.3-4.8c0-19.4-15.7-35.1-35.1-35.1s-35.1,15.7-35.1,35.1
				c0,1.6,0.1,3.2,0.3,4.8H280.7z"/>
			<path fill="#F34F45" d="M119.3,664.9c-0.2-1.6-0.3-3.1-0.3-4.8c0-19.4,15.7-35.1,35.1-35.1s35.1,15.7,35.1,35.1
				c0,1.6-0.1,3.2-0.3,4.8H119.3z"/>
		</g>
		<path fill="#FFFFFF" d="M82,258.6l-48.8,90.2c-6.9,12.8-2.2,28.8,10.5,35.8l0,0c12.8,6.9,28.8,2.2,35.8-10.5l48.8-90.3L82,258.6z"
			/>
		<path fill="#F34F45" d="M86.9,271.1c-6.1-3.8-8.5-11.2-5.3-16.4L82,254c3.3-5.3,10.9-6.4,17-2.6l26.5,16.5
			c6.1,3.8,8.5,11.2,5.3,16.4l-0.4,0.7c-3.3,5.2-10.9,6.4-17,2.6L86.9,271.1z"/>
		<path fill="#FFFFFF" d="M164.2,212.8c-15.1,0-27.5,12.4-27.5,27.5c0,15.1,12.4,27.4,27.5,27.4s27.5-12.4,27.5-27.5
			S179.4,212.8,164.2,212.8L164.2,212.8z M164.2,257.6c-9.6,0-17.4-7.8-17.4-17.4s7.8-17.4,17.4-17.4c9.6,0,17.4,7.8,17.4,17.4
			C181.5,249.8,173.8,257.6,164.2,257.6L164.2,257.6z"/>
		<path fill="#FFFFFF" d="M223,211.6c0,0-4.8,0-10.2-2.3c-5.5-2.4-7-6-12.8-6s-7.3,3.5-12.8,6c-5.4,2.3-10.2,2.3-10.2,2.3
			c11.3,4.1,19.4,15,19.4,27.7c0,5.2-1.4,10.1-3.8,14.4h7.4h7.4c-2.4-4.2-3.8-9.2-3.8-14.4C203.6,226.5,211.7,215.7,223,211.6z"/>
		<g>
			<path fill="#FFFFFF" d="M251.7,371.6l82.7-34.6c13.4-5.6,28.9,0.7,34.5,14.2l0,0c5.6,13.4-0.7,28.9-14.2,34.5L272,420.2
				L251.7,371.6z"/>
			<path fill="#D2D2D2" d="M260.7,235c-3.9-4.6-8.3-8.2-14.1-12.2c-0.6-0.4-0.4-0.7,0.1-0.9c0.4-0.3,1.2-0.6,1.2-0.6
				s-0.3-0.2-0.8-0.4c-0.4-0.3-2-1.1-2.6-1.6c-0.5-0.4-0.7-0.7-0.7-0.8c0-0.1,0.1-0.3,0.5-0.4c0.3-0.2,1.2-0.7,1.2-0.7
				s-0.4-0.3-1-0.6c-0.6-0.3-1.1-0.9-1.2-1c-0.1-0.2,0.2-0.3,1.1-0.9c0.9-0.6,3.6-1.9,4.1-2.1c0.5-0.3,0.9-0.3,2.9,0.4
				c2,0.7,5.6,3.2,5.5,3.3c0,0,0.6-0.3,1.2-0.5c0.6-0.3,1.2-0.1,3.2,1c2,1.2,4.6,3.1,8,5.8c3,2.5,8.4,6.7,16,15.8
				c8.5,10,10.9,14.1,13.8,25.8c1.6,6.7-3.2,15.7-3.3,15.7c-2.7-0.4-7.4-1.4-10.1-1.6c0,0-1.4-0.1-2.8-0.5c-1.5-0.4-1.1-1.7-2-3.8
				c0,0,0.7,2.1-4.8-3.3c-3.6-3.6-6.8-5-11.2-5.1c-4.8-0.1-8.9,0.3-14.1,1.5c-6,1.4-10.2,1.7-11.1-0.6c-0.6-1.8-0.1-6.1,6.7-7.1
				c4.2-0.6,13.7-16.7,15.1-19.4C263.1,238.3,261.9,236.3,260.7,235z"/>
			<path fill="#FFFFFF" d="M318.8,258.5l48.9,90.2c6.9,12.8,2.2,28.8-10.5,35.8l0,0c-12.8,6.9-28.8,2.2-35.8-10.5l-48.9-90.2
				L318.8,258.5z"/>
			<path fill="#F34F45" d="M313.8,270.9c6.1-3.8,8.5-11.2,5.3-16.4l-0.4-0.7c-3.3-5.3-10.9-6.4-17-2.6l-26.5,16.5
				c-6.1,3.8-8.5,11.2-5.3,16.4l0.4,0.7c3.3,5.2,10.9,6.4,17,2.6L313.8,270.9z"/>
		</g>
		<path fill="#FFFFFF" d="M235.8,212.8c-15.1,0-27.5,12.4-27.5,27.5c0,15.1,12.4,27.5,27.5,27.5c15.1,0,27.5-12.4,27.5-27.5
			C263.2,225.2,250.9,212.8,235.8,212.8L235.8,212.8z M235.8,257.6c-9.6,0-17.4-7.8-17.4-17.4s7.8-17.4,17.4-17.4
			s17.4,7.8,17.4,17.4C253.1,249.8,245.4,257.6,235.8,257.6L235.8,257.6z"/>
		<g>
			<path fill="#F34F45" d="M118.2,427.8h-5.4c-6.9,0-12.4-5.5-12.4-12.4v-66c0-6.9,5.5-12.4,12.4-12.4h5.4c6.9,0,12.4,5.5,12.4,12.4
				v66C130.6,422.1,125.1,427.8,118.2,427.8z"/>
			<path fill="#F34F45" d="M287.1,427.8h-5.4c-6.9,0-12.4-5.5-12.4-12.4v-66c0-6.9,5.5-12.4,12.4-12.4h5.4c6.9,0,12.4,5.5,12.4,12.4
				v66C299.6,422.1,294,427.8,287.1,427.8z"/>
		</g>
	</g>
</g>
<g id="business" display="none">
	<g display="inline">
		<path fill="#FFFFFF" d="M285.5,540.9c0,8.7-7,15.8-15.6,15.8h-137c-8.6,0-15.6-7.1-15.6-15.8V356.3c0-8.7,7-15.8,15.6-15.8h137
			c8.6,0,15.6,7.1,15.6,15.8V540.9z"/>
		<g>
			<path fill="#FFFFFF" d="M303.1,238.7c0,56.2-45.6,101.7-101.7,101.7c-56.2,0-101.7-45.6-101.7-101.7
				c0-56.2,45.5-101.7,101.7-101.7C257.6,137,303.1,182.6,303.1,238.7z"/>
			<circle fill="#F34F45" cx="201.4" cy="249.5" r="80.8"/>
			<path fill="#333333" d="M271.8,249.5c0,38.9-31.5,70.4-70.4,70.4c-38.9,0-70.4-31.5-70.4-70.4c0-38.9,31.5-70.4,70.4-70.4
				C240.3,179.1,271.8,210.6,271.8,249.5z"/>
		</g>
		<path fill="#D2D2D2" d="M280.2,331.1c0-7-4.1-12.7-9.1-12.7H131.7c-5,0-9.1,5.7-9.1,12.7l0,0c0,7,4.1,12.7,9.1,12.7h139.4
			C276.1,343.8,280.2,338.1,280.2,331.1L280.2,331.1z"/>
		<g>
			<path fill="#FFFFFF" d="M104.4,345.3l-73,114c-6.6,10.2,2.8,12.6,13,19.2l7.1,4.6c10.2,6.6,17.4,15.1,24,4.8l69.3-106.9
				L104.4,345.3z"/>
			<g>
				<path fill="#D2D2D2" d="M60.1,486.3c4.7,3.4,4.2,12-1,19.2l-0.7,0.9c-5.2,7.2-13.3,10.4-18,7l-20.2-14.6c-4.7-3.4-4.2-12,1-19.3
					l0.7-0.9c5.2-7.2,13.3-10.4,18-7L60.1,486.3z"/>
				<path fill="#D2D2D2" d="M64.2,516.4c0.1,2.9-2.2,5.3-5,5.4l0,0c-2.9,0.1-5.3-2.2-5.4-5l-0.6-19.8c-0.1-2.9,2.2-5.3,5-5.3l0,0
					c2.9-0.1,5.3,2.2,5.4,5L64.2,516.4z"/>
				<path fill="#D2D2D2" d="M13.7,508.1c-1.7,2.3-5,2.8-7.3,1.1l0,0c-2.3-1.7-2.8-5-1.1-7.3L17.1,486c1.7-2.3,5-2.8,7.3-1.1l0,0
					c2.3,1.7,2.8,5,1.1,7.3L13.7,508.1z"/>
				<path fill="#D2D2D2" d="M19.7,519.2c-1.7,2.3-5,2.8-7.3,1.1l0,0c-2.3-1.7-2.8-5-1.1-7.3l11.8-15.9c1.7-2.3,5-2.8,7.3-1.1l0,0
					c2.3,1.7,2.8,5,1.1,7.3L19.7,519.2z"/>
				<path fill="#D2D2D2" d="M27,529c-1.7,2.3-5,2.8-7.3,1.1l0,0c-2.3-1.7-2.8-5-1.1-7.3l11.8-15.9c1.7-2.3,5-2.8,7.3-1.1l0,0
					c2.3,1.7,2.8,5,1.1,7.3L27,529z"/>
				<path fill="#D2D2D2" d="M40,530.8c-1.7,2.3-5,2.8-7.3,1.1l0,0c-2.3-1.7-2.8-5-1.1-7.3l11.8-15.9c1.7-2.3,8.1-6.6,10.4-4.9
					l-3.1,3.8c2.3,1.7,5.9,1.2,4.2,3.5L40,530.8z"/>
			</g>
			<path fill="#F34F45" d="M70.5,474.3c5.8,4.2,7.7,11.7,4.1,16.7l-0.5,0.6c-3.6,5-11.3,5.6-17.1,1.4l-25.2-18.3
				c-5.8-4.2-7.7-11.7-4.1-16.7l0.5-0.6c3.6-5,11.3-5.6,17.1-1.3L70.5,474.3z"/>
		</g>
		<path fill="#FFFFFF" d="M298.4,345.3l73,114c6.6,10.2-2.8,12.6-13,19.2l-7.1,4.6c-10.2,6.6-17.4,15.1-24,4.8L258,380.9
			L298.4,345.3z"/>
		<rect x="117.2" y="494.2" fill="#333333" width="168.3" height="17.1"/>
		<rect x="117.2" y="515.9" fill="#D2D2D2" width="168.3" height="6.6"/>
		<g>
			<path fill="#F34F45" d="M249.6,452.8c0,8.6-7,15.6-15.6,15.6h-65.1c-8.6,0-15.6-7-15.6-15.6v-56.1c0-8.6,7-15.6,15.6-15.6h65.1
				c8.6,0,15.6,7,15.6,15.6V452.8z"/>
			<circle fill="#333333" cx="175.5" cy="410" r="7.8"/>
			<circle fill="#333333" cx="175.5" cy="438.5" r="7.8"/>
			<path fill="#D2D2D2" d="M236.7,441.4c0-2.7-2.2-4.9-4.9-4.9h-30.4c-2.7,0-4.9,2.2-4.9,4.9l0,0c0,2.7,2.2,4.9,4.9,4.9h30.4
				C234.5,446.3,236.7,444.1,236.7,441.4L236.7,441.4z"/>
			<path fill="#D2D2D2" d="M236.7,424.7c0-2.7-2.2-4.9-4.9-4.9h-30.4c-2.7,0-4.9,2.2-4.9,4.9l0,0c0,2.7,2.2,4.9,4.9,4.9h30.4
				C234.5,429.7,236.7,427.4,236.7,424.7L236.7,424.7z"/>
			<path fill="#D2D2D2" d="M236.7,408c0-2.7-2.2-4.9-4.9-4.9h-30.4c-2.7,0-4.9,2.2-4.9,4.9l0,0c0,2.7,2.2,4.9,4.9,4.9h30.4
				C234.5,413,236.7,410.8,236.7,408L236.7,408z"/>
		</g>
		<g>
			<rect x="123.4" y="541.1" fill="#FFFFFF" width="64.4" height="110"/>
			<rect x="215" y="541.1" fill="#FFFFFF" width="64.4" height="110"/>
			<path fill="#F34F45" d="M177.8,568.9c10.3,0,18.6-6.7,18.6-15v-1.1c0-8.3-8.3-14.9-18.6-14.9h-44.3c-10.3,0-18.6,6.7-18.6,14.9
				v1.1c0,8.3,8.3,15,18.6,15H177.8z"/>
			<path fill="#F34F45" d="M225,568.9c-10.3,0-18.6-6.7-18.6-15v-1.1c0-8.3,8.3-14.9,18.6-14.9h44.3c10.3,0,18.6,6.7,18.6,14.9v1.1
				c0,8.3-8.3,15-18.6,15H225z"/>
			<path fill="#F34F45" d="M281.8,664.9c0.2-1.5,0.3-3.1,0.3-4.7c0-19.3-15.7-35-35-35c-19.3,0-35,15.7-35,35c0,1.6,0.1,3.2,0.3,4.7
				H281.8z"/>
			<path fill="#F34F45" d="M121,664.9c-0.2-1.5-0.3-3.1-0.3-4.7c0-19.3,15.7-35,35-35c19.3,0,35,15.7,35,35c0,1.6-0.1,3.2-0.3,4.7
				H121z"/>
		</g>
		<g>
			<path fill="#F34F45" d="M117.9,428.6h-1.4c-8,0-14.4-6.4-14.4-14.4v-61.7c0-8,6.4-14.4,14.4-14.4h1.4c8,0,14.4,6.4,14.4,14.4
				v61.7C132.3,422.1,125.9,428.6,117.9,428.6z"/>
			<path fill="#F34F45" d="M286.2,428.6h-1.4c-8,0-14.4-6.4-14.4-14.4v-61.7c0-8,6.4-14.4,14.4-14.4h1.4c8,0,14.4,6.4,14.4,14.4
				v61.7C300.6,422.1,294.2,428.6,286.2,428.6z"/>
		</g>
		<g>
			<path d="M216.3,343.8h-29.9c-2.5,0-4.5,2-4.5,4.5l12.5,25.8h14.3l12.1-25.8C220.8,345.8,218.8,343.8,216.3,343.8z"/>
			<path d="M207.4,376.7h-12.1c-0.5,0-0.8,0.3-0.9,0.8l-5.8,88.9c0,0.2,0,0.4,0.1,0.5l11.6,18.3c0.2,0.3,0.4,0.4,0.7,0.4h0
				c0.3,0,0.6-0.1,0.7-0.4l12.5-18.3c0.1-0.2,0.2-0.4,0.1-0.6l-6.2-88.8C208.3,377.1,207.9,376.7,207.4,376.7z"/>
		</g>
		<path d="M347.8,510.3c0,0,2.9,0,3.6,0c0.7,0,0.9,0.1,1.3,0.3c0.4,0.2,39.4,14.3,40.2,14.6s1.5,0.6,1.7,1.3c0.3,0.8,1.1,3.3,1,7.3
			s-1.2,106.6-1.2,106.6s0,1.9-0.1,3.1c-0.1,1.3-0.3,2.9-0.5,3.7c-0.2,0.8-0.3,1-0.6,1.4c-0.2,0.4-0.4,0.5-0.9,0.5
			c-0.5,0-24,0.3-24.3,0.3c-0.3,0-0.5,0-0.8-0.2c-0.4-0.1-40.8-14.9-41.2-15c-0.4-0.1-0.7-0.2-0.9-0.6c-0.2-0.4-0.5-1.1-0.7-1.9
			s-0.4-2.1-0.4-2.7c-0.1-0.6-0.2-1.9-0.1-3.7c0-1.7,1.2-108,1.2-108s0-1.5,0.2-2.9c0.2-1.3,0.5-2.7,0.8-3.2c0.3-0.5,0.5-0.8,1-0.8
			S347.8,510.3,347.8,510.3z"/>
		<path fill="#D2D2D2" d="M337.1,473.6c0,0,7.1-3.7,10.7-5c3.6-1.2,9.9-2,13.3,0.8c4.4,3.7,13.2,14.3,15.8,18.9
			c2.6,4.5,7.5,20.7,4.9,24.1c-2.3,3-9.5,2.3-11.7,4.7c-2.1,2.2-7.3,3.6-10.2,4.6c-2.9,0.9-7.8-3.4-9.2-5.8
			c-2.2-3.8-3.1-5.1-5.8-12.9c-3.4-9.8-9-17-11.1-23.2C332.5,476,337.1,473.6,337.1,473.6z"/>
		<path fill="#F34F45" d="M332.2,474.4c-5.8,4.2-7.7,11.7-4.1,16.7l0.5,0.6c3.6,5,11.3,5.6,17.1,1.4l25.2-18.3
			c5.8-4.2,7.7-11.7,4.1-16.7l-0.5-0.6c-3.6-5-11.3-5.6-17.1-1.3L332.2,474.4z"/>
		<path d="M373.4,499.5c-0.4-2.6-1.2-4.7-1.9-6.1c-3.2,1.7-6.2,9.7-7.6,14c0.2,0.6,0.4,1.4,0.5,2.3c0.3,1.5,0.2,4.9,0.2,4.9
			l-0.1,9.1l3.7,1.4l6.2-0.1c0,0,0.1-6.3,0.1-11.8C374.7,507.7,374,503.4,373.4,499.5z"/>
	</g>
</g>
</svg>
