<?xml version="1.0" encoding="utf-8"?>
<!-- Generator: Adobe Illustrator 18.1.1, SVG Export Plug-In . SVG Version: 6.00 Build 0)  -->
<!DOCTYPE svg PUBLIC "-//W3C//DTD SVG 1.1//EN" "http://www.w3.org/Graphics/SVG/1.1/DTD/svg11.dtd">
<svg version="1.1" id="Layer_3" xmlns="http://www.w3.org/2000/svg" xmlns:xlink="http://www.w3.org/1999/xlink" x="0px" y="0px"
	 viewBox="0 0 700 200" enable-background="new 0 0 700 200" xml:space="preserve">
<g>
	<path fill="#424242" d="M225,118.4h-7.4l7.7-44.6h7.4L225,118.4z M226.7,62.1c0-1.3,0.4-2.4,1.2-3.2c0.8-0.9,1.8-1.3,3.1-1.4
		c0.7,0,1.3,0.1,1.8,0.3c0.5,0.2,1,0.5,1.4,0.9c0.4,0.4,0.7,0.9,0.9,1.4c0.2,0.5,0.3,1.1,0.3,1.8c0,1.3-0.4,2.3-1.3,3.2
		c-0.8,0.8-1.9,1.3-3.2,1.3c-1.3,0.1-2.3-0.3-3.2-1.1C227.1,64.4,226.7,63.4,226.7,62.1z"/>
	<path fill="#424242" d="M249.8,73.7l-1.1,5.6c1.8-2,3.9-3.6,6.1-4.7c2.3-1.2,4.8-1.7,7.5-1.7c2.4,0.1,4.4,0.5,6,1.4
		c1.6,0.9,2.8,2.1,3.7,3.5c0.9,1.5,1.5,3.2,1.8,5.1c0.3,2,0.3,4,0.1,6.1l-4.9,29.2h-7.5l4.9-29.4c0.2-1.3,0.2-2.6,0-3.8
		c-0.1-1.2-0.5-2.2-1-3c-0.5-0.9-1.2-1.6-2.2-2.1c-0.9-0.5-2.2-0.8-3.6-0.8c-1.3,0-2.5,0.1-3.6,0.5c-1.1,0.4-2.2,0.9-3.2,1.5
		c-1,0.6-1.9,1.4-2.7,2.3c-0.8,0.9-1.6,1.8-2.3,2.8l-5.5,31.8H235l7.7-44.6L249.8,73.7z"/>
	<path fill="#424242" d="M297.6,63l-1.9,10.8h8.1l-1,5.9h-8.1l-4.7,27.7c-0.1,0.7-0.1,1.4,0,2s0.2,1.2,0.5,1.6
		c0.2,0.5,0.6,0.9,1.1,1.1c0.5,0.3,1.1,0.4,1.9,0.4c0.6,0,1.2,0,1.8-0.1c0.6-0.1,1.2-0.2,1.8-0.3l-0.6,6.2c-1.8,0.5-3.6,0.7-5.4,0.7
		c-1.7,0-3.1-0.4-4.3-1.1c-1.1-0.7-2-1.6-2.7-2.7c-0.7-1.1-1.1-2.4-1.3-3.8c-0.2-1.4-0.3-2.9-0.1-4.4l4.5-27.6h-7.9l1-5.9h7.9
		l1.9-10.8H297.6z"/>
	<path fill="#424242" d="M320.5,119.2c-3.1-0.1-5.7-0.7-7.9-1.9c-2.2-1.2-4-2.8-5.4-4.8c-1.4-2-2.3-4.2-2.9-6.8
		c-0.6-2.6-0.7-5.2-0.5-8L304,96c0.2-1.9,0.6-3.8,1.2-5.7c0.6-1.9,1.4-3.7,2.3-5.4c0.9-1.7,2-3.3,3.3-4.8c1.3-1.5,2.7-2.7,4.3-3.8
		c1.6-1.1,3.3-1.9,5.2-2.5c1.9-0.6,3.8-0.9,6-0.8c3.1,0.1,5.6,0.8,7.7,2c2,1.3,3.6,2.9,4.8,5c1.1,2,1.9,4.4,2.2,6.9
		c0.3,2.6,0.3,5.2,0,7.9l-0.5,3.4h-29.1c-0.2,1.7-0.2,3.5,0,5.2c0.2,1.7,0.8,3.3,1.5,4.7s1.9,2.5,3.2,3.4c1.4,0.9,3.1,1.4,5.1,1.4
		c2.5,0.1,4.8-0.5,6.8-1.6c2-1.1,3.8-2.6,5.5-4.3l4.3,3.6c-1,1.4-2.1,2.7-3.4,3.8c-1.3,1.1-2.6,2-4.1,2.7c-1.5,0.7-3,1.3-4.7,1.6
		C323.9,119.1,322.2,119.2,320.5,119.2z M325.8,79.2c-1.9-0.1-3.6,0.2-5,1c-1.5,0.7-2.8,1.7-3.9,2.9c-1.1,1.2-2.1,2.6-2.9,4.2
		c-0.8,1.6-1.5,3.1-2,4.7l21.7,0.1l0.2-0.7c0.2-1.5,0.2-2.9,0-4.3c-0.2-1.4-0.6-2.7-1.3-3.9c-0.7-1.1-1.6-2.1-2.7-2.8
		C328.9,79.6,327.5,79.2,325.8,79.2z"/>
	<path fill="#424242" d="M373,80.6c-1.2-0.2-2.3-0.3-3.5-0.4c-2.5,0-4.7,0.6-6.5,1.7c-1.9,1.1-3.4,2.7-4.8,4.8l-5.5,31.7h-7.5
		l7.7-44.6l7.2,0l-1.1,5.2c1.4-1.8,3-3.3,4.8-4.5c1.8-1.1,3.9-1.7,6.3-1.6c0.6,0,1.2,0.1,1.8,0.2c0.6,0.1,1.2,0.3,1.7,0.4L373,80.6z
		"/>
	<path fill="#424242" d="M387.3,73.7l-1.1,5.6c1.8-2,3.9-3.6,6.1-4.7c2.3-1.2,4.8-1.7,7.5-1.7c2.4,0.1,4.4,0.5,6,1.4
		c1.6,0.9,2.8,2.1,3.7,3.5c0.9,1.5,1.5,3.2,1.8,5.1c0.3,2,0.3,4,0.1,6.1l-4.9,29.2h-7.5l4.9-29.4c0.2-1.3,0.2-2.6,0-3.8
		c-0.1-1.2-0.5-2.2-1-3c-0.5-0.9-1.2-1.6-2.2-2.1c-0.9-0.5-2.2-0.8-3.6-0.8c-1.3,0-2.5,0.1-3.6,0.5c-1.1,0.4-2.2,0.9-3.2,1.5
		c-1,0.6-1.9,1.4-2.7,2.3c-0.8,0.9-1.6,1.8-2.3,2.8l-5.5,31.8h-7.5l7.7-44.6L387.3,73.7z"/>
	<path fill="#424242" d="M443.1,77.9c-1.1-0.2-2.2-0.3-3.3-0.4c-1.5,0-3,0.2-4.5,0.7c-1.5,0.5-2.8,1.2-4.1,2.1
		c-1.2,0.9-2.3,2-3.2,3.2c-0.9,1.3-1.6,2.6-2,4.1l-5.3,30.7h-4.9l7.7-44.6h4.8l-1.5,7.1c0.7-1.2,1.6-2.3,2.5-3.3
		c0.9-1,2-1.9,3.1-2.6c1.1-0.7,2.3-1.2,3.6-1.6c1.3-0.4,2.7-0.5,4.2-0.5c0.6,0,1.1,0.1,1.7,0.2c0.6,0.1,1.1,0.2,1.7,0.4L443.1,77.9z
		"/>
	<path fill="#424242" d="M441.3,95.7c0.4-3,1.1-5.8,2.3-8.6c1.2-2.8,2.8-5.2,4.7-7.3c1.9-2.1,4.2-3.8,6.9-5s5.6-1.8,8.8-1.8
		c3.1,0.1,5.7,0.8,7.9,2.1c2.2,1.3,3.9,3,5.2,5.1c1.3,2.1,2.2,4.5,2.6,7.1c0.5,2.6,0.5,5.3,0.3,8.1l-0.2,1.4c-0.4,3-1.2,5.8-2.4,8.6
		c-1.2,2.7-2.8,5.2-4.7,7.3c-1.9,2.1-4.2,3.8-6.8,5c-2.6,1.2-5.5,1.8-8.8,1.7c-2-0.1-3.9-0.4-5.5-1c-1.6-0.6-3.1-1.4-4.3-2.5
		c-1.3-1-2.3-2.2-3.2-3.6c-0.9-1.4-1.5-2.9-2-4.5c-0.5-1.6-0.8-3.3-1-5.1c-0.2-1.8-0.1-3.6,0.1-5.4L441.3,95.7z M446,97.1
		c-0.2,2-0.2,4.1,0,6.2c0.2,2.1,0.8,4,1.7,5.7s2.1,3.2,3.6,4.3c1.6,1.1,3.6,1.7,6,1.8c2.6,0.1,4.8-0.4,6.9-1.5
		c2-1.1,3.8-2.5,5.3-4.2c1.5-1.7,2.7-3.7,3.6-6c0.9-2.2,1.5-4.5,1.8-6.8l0.2-1.3c0.2-2,0.2-4.1,0-6.2c-0.2-2.1-0.8-4.1-1.7-5.8
		c-0.9-1.8-2.1-3.2-3.7-4.3c-1.6-1.1-3.6-1.8-6-1.8c-2.6-0.1-4.9,0.4-6.9,1.5c-2,1.1-3.8,2.5-5.3,4.3c-1.5,1.8-2.7,3.8-3.6,6
		c-0.9,2.3-1.5,4.5-1.8,6.8L446,97.1z"/>
	<path fill="#424242" d="M500.9,115.1c1.7,0.1,3.3-0.2,4.7-0.6c1.5-0.5,2.8-1.2,4-2.1c1.2-0.9,2.2-2,3.1-3.3
		c0.9-1.3,1.5-2.8,1.9-4.4h4.7c-0.4,2.2-1.2,4.2-2.3,6.1c-1.2,1.8-2.6,3.4-4.2,4.6c-1.7,1.3-3.5,2.3-5.6,2.9c-2.1,0.7-4.2,1-6.5,0.9
		c-3.1-0.1-5.7-0.8-7.7-2.1c-2.1-1.3-3.7-3-4.9-5.1c-1.2-2.1-2-4.4-2.3-7c-0.4-2.6-0.4-5.3-0.1-8l0.2-1.8c0.4-2.9,1.1-5.7,2.2-8.5
		c1.1-2.7,2.6-5.1,4.4-7.2c1.8-2.1,4-3.7,6.6-5c2.5-1.2,5.4-1.8,8.6-1.7c2.3,0.1,4.4,0.5,6.2,1.3c1.8,0.8,3.4,1.9,4.6,3.3
		c1.3,1.4,2.2,3.1,2.8,5c0.6,1.9,0.9,4,0.8,6.3l-4.7,0c0.1-1.6-0.1-3.1-0.5-4.5c-0.4-1.4-1-2.6-1.9-3.7c-0.9-1-1.9-1.9-3.2-2.5
		c-1.3-0.6-2.8-1-4.4-1c-2.6-0.1-4.8,0.4-6.8,1.4c-2,1-3.6,2.4-5,4.1c-1.4,1.7-2.5,3.7-3.3,5.9c-0.8,2.2-1.4,4.4-1.7,6.7l-0.2,1.7
		c-0.2,1.3-0.2,2.7-0.2,4.1c0,1.4,0.1,2.8,0.4,4.1c0.2,1.3,0.6,2.6,1.1,3.7c0.5,1.2,1.2,2.2,2,3.1c0.8,0.9,1.9,1.6,3.1,2.1
		C497.8,114.7,499.2,115,500.9,115.1z"/>
	<path fill="#424242" d="M538.5,96l-6.6,5.6l-2.9,16.8h-4.9l11-63.3h4.9l-7,40.2l5.1-4.7l19.4-16.7h6.6l-21.9,19l15.4,25.6h-5.4
		L538.5,96z"/>
	<path fill="#424242" d="M577.9,119.2c-3-0.1-5.6-0.7-7.7-2c-2.1-1.3-3.9-2.9-5.2-4.9c-1.3-2-2.2-4.3-2.7-6.9
		c-0.5-2.6-0.6-5.2-0.4-7.9l0.2-1.8c0.3-2.8,1.1-5.6,2.2-8.3c1.2-2.7,2.7-5.2,4.6-7.4s4.1-3.9,6.6-5.2c2.5-1.3,5.4-1.9,8.5-1.8
		c2.9,0.1,5.3,0.7,7.2,1.9c1.9,1.2,3.5,2.7,4.6,4.7c1.1,1.9,1.9,4.1,2.2,6.5c0.4,2.4,0.4,4.9,0.1,7.4l-0.3,3h-30.9l-0.2,1
		c-0.3,2-0.3,4,0,6.1c0.3,2.1,0.9,3.9,1.9,5.6c0.9,1.7,2.2,3.1,3.8,4.1c1.6,1.1,3.6,1.7,5.9,1.8c1.3,0.1,2.6-0.1,3.8-0.3
		c1.2-0.3,2.3-0.7,3.4-1.2c1.1-0.5,2.1-1.2,3.1-1.9c1-0.8,1.9-1.6,2.8-2.5l2.9,2.3c-2,2.6-4.4,4.5-7.2,5.9
		C584.2,118.6,581.2,119.3,577.9,119.2z M583.7,77.1c-2.2-0.1-4.2,0.3-5.9,1.2c-1.8,0.9-3.3,2-4.6,3.5c-1.3,1.4-2.5,3.1-3.4,4.9
		c-0.9,1.8-1.7,3.7-2.3,5.5l25.9,0l0.1-0.6c0.2-1.7,0.2-3.4,0-5.1c-0.3-1.7-0.8-3.2-1.6-4.6c-0.8-1.4-1.9-2.5-3.2-3.4
		C587.3,77.7,585.6,77.2,583.7,77.1z"/>
	<path fill="#424242" d="M617.3,62.4l-2,11.4h8.9l-0.7,4h-8.9l-4.9,29.8c-0.1,0.9-0.1,1.7-0.1,2.6c0,0.9,0.2,1.6,0.4,2.3
		c0.3,0.7,0.7,1.2,1.3,1.6c0.6,0.4,1.4,0.7,2.4,0.7c0.7,0,1.4,0,2-0.1c0.7-0.1,1.3-0.1,2-0.2l-0.2,4c-1.6,0.5-3.3,0.7-4.9,0.6
		c-1.7,0-3.1-0.4-4.2-1c-1.1-0.6-1.9-1.5-2.5-2.6c-0.6-1.1-0.9-2.3-1.1-3.7c-0.2-1.4-0.2-2.8,0-4.3l4.9-29.7h-8l0.7-4h7.9l2-11.4
		H617.3z"/>
</g>
<g>
	<path fill="#F44336" d="M521.5,153.7c0-0.7,0.2-1.2,0.6-1.7c0.4-0.4,1-0.7,1.6-0.7c0.7,0,1.2,0.2,1.7,0.6c0.4,0.4,0.7,1,0.6,1.6
		c0,0.7-0.2,1.2-0.7,1.6c-0.4,0.4-1,0.6-1.6,0.7c-0.3,0-0.6,0-0.9-0.1c-0.3-0.1-0.5-0.3-0.7-0.4c-0.2-0.2-0.4-0.4-0.5-0.7
		C521.5,154.3,521.5,154,521.5,153.7z"/>
	<path fill="#F44336" d="M537,152.9c0.7,0,1.3-0.1,1.9-0.3c0.6-0.2,1.2-0.5,1.7-0.9c0.5-0.4,0.9-0.8,1.3-1.4
		c0.4-0.5,0.6-1.1,0.8-1.8l3.5,0c-0.2,1.1-0.5,2.1-1.1,3.1c-0.6,0.9-1.3,1.7-2.2,2.4c-0.9,0.7-1.8,1.2-2.9,1.5
		c-1.1,0.4-2.1,0.5-3.2,0.5c-1.6,0-2.9-0.4-4-1c-1.1-0.6-1.9-1.5-2.6-2.5c-0.6-1-1.1-2.2-1.3-3.5c-0.2-1.3-0.3-2.7-0.1-4.1l0.1-0.9
		c0.2-1.5,0.6-2.9,1.1-4.3c0.6-1.4,1.3-2.6,2.3-3.6c1-1,2.1-1.8,3.4-2.4c1.3-0.6,2.8-0.9,4.4-0.8c1.2,0,2.2,0.2,3.2,0.7
		c0.9,0.4,1.7,1,2.4,1.7c0.7,0.7,1.2,1.6,1.5,2.5c0.4,1,0.5,2,0.5,3.2h-3.5c0-0.7-0.1-1.3-0.3-1.9c-0.2-0.6-0.5-1.1-0.8-1.6
		c-0.4-0.5-0.8-0.8-1.3-1.1c-0.5-0.3-1.2-0.4-1.9-0.4c-1.1,0-2.1,0.2-3,0.6c-0.9,0.5-1.6,1.1-2.2,1.9c-0.6,0.8-1.1,1.6-1.4,2.6
		c-0.4,1-0.6,2-0.7,2.9l-0.1,0.9c-0.1,0.9-0.1,1.8-0.1,2.7c0,0.9,0.2,1.8,0.5,2.6c0.3,0.8,0.8,1.4,1.4,1.9
		C535,152.6,535.9,152.9,537,152.9z"/>
	<path fill="#F44336" d="M549.9,144.4c0.1-1,0.3-2,0.6-3c0.3-1,0.7-1.9,1.2-2.7c0.5-0.9,1-1.6,1.7-2.4c0.7-0.7,1.4-1.3,2.2-1.9
		c0.8-0.5,1.7-0.9,2.6-1.2c1-0.3,2-0.4,3.1-0.4c1.6,0,2.9,0.4,4,1c1.1,0.7,2,1.5,2.7,2.6c0.7,1.1,1.1,2.2,1.4,3.6
		c0.3,1.3,0.3,2.7,0.2,4.1l0,0.5c-0.2,1.5-0.6,3-1.2,4.3c-0.6,1.4-1.4,2.6-2.4,3.7c-1,1.1-2.1,1.9-3.5,2.5c-1.3,0.6-2.8,0.9-4.4,0.9
		c-1.6,0-2.9-0.4-4-1c-1.1-0.6-2-1.5-2.7-2.5c-0.7-1-1.1-2.2-1.4-3.5c-0.3-1.3-0.3-2.7-0.2-4.1L549.9,144.4z M553.6,144.9
		c-0.1,0.6-0.1,1.2-0.1,1.8c0,0.6,0.1,1.2,0.2,1.8c0.1,0.6,0.3,1.2,0.5,1.7c0.2,0.5,0.5,1,0.9,1.4c0.4,0.4,0.8,0.7,1.3,1
		c0.5,0.2,1.2,0.4,1.9,0.4c1.1,0,2.2-0.2,3-0.7c0.9-0.5,1.6-1.1,2.3-1.9c0.6-0.8,1.1-1.7,1.5-2.7c0.4-1,0.6-2,0.8-3l0.1-0.5
		c0.1-0.6,0.1-1.2,0.1-1.8c0-0.6-0.1-1.2-0.2-1.8c-0.1-0.6-0.3-1.2-0.5-1.7c-0.2-0.5-0.5-1-0.9-1.4c-0.4-0.4-0.8-0.7-1.4-1
		c-0.5-0.3-1.2-0.4-1.9-0.4c-1.2,0-2.2,0.2-3,0.7c-0.9,0.5-1.6,1.2-2.2,2c-0.6,0.8-1.1,1.7-1.5,2.7c-0.4,1-0.6,2-0.8,3L553.6,144.9z
		"/>
	<path fill="#F44336" d="M578.6,133.3l-0.5,2.5c0.9-1,1.9-1.7,3.1-2.2c1.1-0.5,2.4-0.7,3.7-0.7c0.6,0,1.2,0.1,1.8,0.2
		c0.6,0.1,1.1,0.3,1.6,0.6c0.5,0.3,0.9,0.7,1.3,1.1c0.4,0.5,0.7,1,0.9,1.6c1-1.1,2.1-2,3.3-2.7c1.2-0.6,2.6-1,4.1-0.9
		c1.2,0,2.2,0.3,3.1,0.7c0.8,0.4,1.5,1,2,1.7c0.5,0.7,0.8,1.6,1,2.5c0.2,1,0.2,2,0.1,3.1l-2.5,14.7h-3.7l2.4-14.7
		c0.1-0.7,0.1-1.4,0-2c-0.1-0.6-0.3-1.1-0.6-1.5c-0.3-0.4-0.7-0.7-1.2-1c-0.5-0.2-1.1-0.4-1.9-0.4c-0.7,0-1.4,0.1-2,0.3
		c-0.6,0.2-1.2,0.6-1.7,1c-0.5,0.4-1,0.9-1.3,1.5c-0.4,0.6-0.6,1.2-0.8,1.9l-2.5,14.8h-3.8l2.5-14.7c0.1-0.7,0.1-1.3,0-1.9
		c-0.1-0.6-0.3-1.1-0.6-1.5c-0.3-0.4-0.7-0.8-1.2-1c-0.5-0.2-1.1-0.4-1.9-0.4c-1.2,0-2.3,0.2-3.2,0.8s-1.7,1.4-2.3,2.4l-2.8,16.3
		h-3.7l3.9-22.3L578.6,133.3z"/>
</g>
<g>
	<path fill="#F44336" d="M126.3,144.6c0,0,4.9-2.6,15.7-8.1c10.8-5.5,20-13.3,20-13.3s-17.7,26.3-25.6,32.8
		c-8,6.5-12.5,7.4-12.5,7.4s1.7-3.9,2.2-10.1C126.6,147,126.3,144.6,126.3,144.6"/>
	<path fill="#F44336" d="M97.9,116.1c0,0,2.6-4.9,8.1-15.7c5.5-10.8,13.3-20,13.3-20S93,98.1,86.6,106c-6.5,8-7.4,12.5-7.4,12.5
		s3.9-1.7,10.1-2.2C95.5,115.9,97.9,116.1,97.9,116.1"/>
	<path fill="#F44336" d="M166.8,115.1C197.2,84.6,213.4,39,208.4,34c-5-5-50.9,11.6-81.3,42.1c-11.8,11.8-22.9,36.3-26.3,42.9
		l3.8,3.8c-0.8,2.5-1.4,4.4-1.8,5.3l11.7,11.7c0.9-0.4,2.8-1,5.5-1.7l3.7,3.7C130.2,138.5,155,126.8,166.8,115.1 M143.4,99.1
		c-1.8-1.8-1.8-4.8,0-6.6c1.8-1.8,4.8-1.8,6.6,0c1.8,1.8,1.8,4.8,0,6.6C148.2,100.9,145.2,100.9,143.4,99.1 M152.4,83.5
		c1.8-1.8,4.8-1.8,6.6,0c1.8,1.8,1.8,4.8,0,6.6c-1.8,1.8-4.8,1.8-6.6,0C150.6,88.3,150.6,85.3,152.4,83.5 M168,74.5
		c1.8,1.8,1.8,4.8,0,6.6c-1.8,1.8-4.8,1.8-6.6,0c-1.8-1.8-1.8-4.8,0-6.6C163.2,72.7,166.1,72.6,168,74.5"/>
	<path fill="#F44336" d="M109.9,141.8c-7.1,7.1-20.3,13.8-21.6,12.5c-1.3-1.3,5.4-14.5,12.4-21.6c-2.1-1-4-1.2-5.1,0
		c-11.1,11.1-21.6,31.9-19.5,34c2,2,22.9-8.7,34-19.8C111.1,145.7,110.9,143.8,109.9,141.8"/>
</g>
<g>
</g>
<g>
</g>
<g>
</g>
<g>
</g>
<g>
</g>
<g>
</g>
<g>
</g>
<g>
</g>
<g>
</g>
<g>
</g>
<g>
</g>
<g>
</g>
<g>
</g>
<g>
</g>
<g>
</g>
</svg>
